/* XPM */
static char *east[] = {
/* columns rows colors chars-per-pixel */
"128 128 5 1 ",
"  c #0E3F33",
". c #1AAA86",
"X c #26D5AA",
"o c #DAD1D1",
"O c white",
/* pixels */
"XXXXXXXX....XXXXXX..  XXXXXXXXXXXX..XXXX..  XXXXXXXXXXXXXXXXXX..  XXXXXXXXXXXXXXXXXX..  XXXXXXXXXX....XXXX..  XXXXXX..XXXXXXXXXX",
"XXXXXXXX....XXXXXX..  XXXXXXXXXXXX..XXXX..  XXXXXXXXXXXXXXXXXX..  XXXXXXXXXXXXXXXXXX..  XXXXXXXXXX....XXXX..  XXXXXX..XXXXXXXXXX",
"XXXXXXXXXXXXXXXXXX..  XXXXXXXXXXXXXXXXXX..  XXXXXX..XXXXXXXXXX..  XXXXXXXXXXXX..XXXX..  XXXXXXXXXXXXXXXXXX..  XXXXXXXXXXXXXX..XX",
"XXXXXXXXXXXXXXXXXX..  XXXXXXXXXXXXXXXXXX..  XXXXXX..XXXXXXXXXX..  XXXXXXXXXXXX..XXXX..  XXXXXXXXXXXXXXXXXX..  XXXXXXXXXXXXXX..XX",
"....................  ....................  ....................  ....................  ....................  ..................",
"....................  ....................  ....................  ....................  ....................  ..................",
"                                                                                                                                ",
"                                                                                                                                ",
"XXXXXX  XXXXXXXXXXXXXXXXXXXX  XXXXXXXXXXXXXXXXXXXX  XXXXXXXXXXXXXXXXXXXX  XXXXXXXXXXXXXXXXXXXX  XXXXXXXXXXXXXXXXXXXX  XXXXXXXXXX",
"XXXXXX  XXXXXXXXXXXXXXXXXXXX  XXXXXXXXXXXXXXXXXXXX  XXXXXXXXXXXXXXXXXXXX  XXXXXXXXXXXXXXXXXXXX  XXXXXXXXXXXXXXXXXXXX  XXXXXXXXXX",
"XXXX..  XXXXXX....XXXXXXXX..  XXXXXXXXXXXX....XX..  XXXXXXXXXXXXXXXXXX..  XXXXXXXXXXXX..XXXX..  XXXXXXXXXXXXXXXXXX..  XXXXXXXXXX",
"XXXX..  XXXXXX....XXXXXXXX..  XXXXXXXXXXXX....XX..  XXXXXXXXXXXXXXXXXX..  XXXXXXXXXXXX..XXXX..  XXXXXXXXXXXXXXXXXX..  XXXXXXXXXX",
"XX....  XXXXXXXXXXXX..XXXX..  XXXX..XXXXXXXXXXXX..  XXXXXX....XXXXXXXX..  XXXX..XXXXXXXXXXXX..  XX..XXXXXXXXXXXXXX..  XXXX....XX",
"XX....  XXXXXXXXXXXX..XXXX..  XXXX..XXXXXXXXXXXX..  XXXXXX....XXXXXXXX..  XXXX..XXXXXXXXXXXX..  XX..XXXXXXXXXXXXXX..  XXXX....XX",
"XXXX..  XXXXXXXXXXXXXXXXXX..  XXXXXXXXXXXXXXXXXX..  XXXXXXXXXXXX..XXXX..  XXXXXXXXXXXXXXXXXX..  XXXXXXXXXXXXXXXXXX..  XXXXXXXXXX",
"XXXX..  XXXXXXXXXXXXXXXXXX..  XXXXXXXXXXXXXXXXXX..  XXXXXXXXXXXX..XXXX..  XXXXXXXXXXXXXXXXXX..  XXXXXXXXXXXXXXXXXX..  XXXXXXXXXX",
"......  ....................  ....................  ....................  ....................  ....................  ..........",
"......  ....................  ....................  ....................  ....................  ....................  ..........",
"                                                                                                                                ",
"                                                                                                                                ",
"XXXXXXXXXXXXXX  XXXXXXXXXXXXXXXXXXXX  XXXXXXXXXXXXXXXXOOOOooOOOOOOOOOOOOOOXXXXXX  XXXXXXXXXXXXXXXXXXXX  XXXXXXXXXXXXXXXXXXXX  XX",
"XXXXXXXXXXXXXX  XXXXXXXXXXXXXXXXXXXX  XXXXXXXXXXXXXXXXOOOOooOOOOOOOOOOOOOOXXXXXX  XXXXXXXXXXXXXXXXXXXX  XXXXXXXXXXXXXXXXXXXX  XX",
"XXXXXXXXXXXX..  XXXXXXXXXXXX....XX..  XXXXXXXXOOOOOOOOXX..  XXXXXXXXXXXXXXOOOOooooXXXX....XXXXXXXXXX..  XXXXXXXX..XXXXXXXX..  XX",
"XXXXXXXXXXXX..  XXXXXXXXXXXX....XX..  XXXXXXXXOOOOOOOOXX..  XXXXXXXXXXXXXXOOOOooooXXXX....XXXXXXXXXX..  XXXXXXXX..XXXXXXXX..  XX",
"XXXX....XXXX..  XXXX....XXXXXXXXXX..  XXXXOOOOXXXXXX..XX..  XXXXXXXX....XXXXXX..  OOOOXXXXXXXXXXXXXX..  XXXXXXXXXX....XXXX..  XX",
"XXXX....XXXX..  XXXX....XXXXXXXXXX..  XXXXOOOOXXXXXX..XX..  XXXXXXXX....XXXXXX..  OOOOXXXXXXXXXXXXXX..  XXXXXXXXXX....XXXX..  XX",
"XXXXXXXXXXXX..  XXXXXXXXXXXXXXXXXX..  OOOOXXXXXXXXXXXX....  XX..XXXXXXXXXXXXXX..  XXXXOOOOXX....XXXX..  XXXXXXXXXXXXXXXXXX..  XX",
"XXXXXXXXXXXX..  XXXXXXXXXXXXXXXXXX..  OOOOXXXXXXXXXXXX....  XX..XXXXXXXXXXXXXX..  XXXXOOOOXX....XXXX..  XXXXXXXXXXXXXXXXXX..  XX",
"..............  ..................oooo....................  ....................  ........oooo........  ....................  ..",
"..............  ..................oooo....................  ....................  ........oooo........  ....................  ..",
"                                oo                                                            oo                                ",
"                                oo                                                            oo                                ",
"  XXXXXXXXXXXXXXXXXXXX  XXXXXXOOXXXXXXXXXXXX  XXXXXXXXXXXXXXXXXXXX  XXXXXXXXXXXXXXXXXXXX  XXXXXXOOXXXXXXXXXXXX  XXXXXXXXXXXXXXXX",
"  XXXXXXXXXXXXXXXXXXXX  XXXXXXOOXXXXXXXXXXXX  XXXXXXXXXXXXXXXXXXXX  XXXXXXXXXXXXXXXXXXXX  XXXXXXOOXXXXXXXXXXXX  XXXXXXXXXXXXXXXX",
"  XXXXXXXXXX..XXXXXX..  XXXXOOXXXXXX....XX..  XXXXXXXXXXXX....XX..  XXXX....XXXXXXXXXX..  XXXX..XXOOXXXXXXXX..  XXXXXXXX..XXXXXX",
"  XXXXXXXXXX..XXXXXX..  XXXXOOXXXXXX....XX..  XXXXXXXXXXXX....XX..  XXXX....XXXXXXXXXX..  XXXX..XXOOXXXXXXXX..  XXXXXXXX..XXXXXX",
"  XXXX..XXXXXXXX......  XXOO..XXXXXXXXXXXX..  OOOOOOOOOOOOOOOOOOOOOOOOOOOOOOOOOOOOOOOO..  XXXXXXXXXXOO....XX..  XX....XXXXXX..XX",
"  XXXX..XXXXXXXX......  XXOO..XXXXXXXXXXXX..  OOOOOOOOOOOOOOOOOOOOOOOOOOOOOOOOOOOOOOOO..  XXXXXXXXXXOO....XX..  XX....XXXXXX..XX",
"  XXXXXXXXXXXXXXXXXX..  OOXXXXXXXXXXXXXXXX..OOOOOOOOOOOOOOOOOOOOOOOOOOOOOOOOOOOOOOOOOOOO  ..XXXX..XXXXOOXXXX..  XXXXXXXXXXXXXXXX",
"  XXXXXXXXXXXXXXXXXX..  OOXXXXXXXXXXXXXXXX..OOOOOOOOOOOOOOOOOOOOOOOOOOOOOOOOOOOOOOOOOOOO  ..XXXX..XXXXOOXXXX..  XXXXXXXXXXXXXXXX",
"  ....................oo..................OOOOOOOOoooooooooooooooooooooooooooooooooooo..  ..............oo....  ................",
"  ....................oo..................OOOOOOOOoooooooooooooooooooooooooooooooooooo..  ..............oo....  ................",
"                      oo                  OOOOOOoo                                                      oo                      ",
"                      oo                  OOOOOOoo                                                      oo                      ",
"XXXXXXXX  XXXXXXXXXXOOXXXXXXXX  XXXXXXXXXXOOOOooXXXX  XXXXXXXXXXXXXXXXXXXX  XXXXXXXXXXXXXXXXXXXX  XXXXXXXXOOXXXXXXXXXX  XXXXXXXX",
"XXXXXXXX  XXXXXXXXXXOOXXXXXXXX  XXXXXXXXXXOOOOooXXXX  XXXXXXXXXXXXXXXXXXXX  XXXXXXXXXXXXXXXXXXXX  XXXXXXXXOOXXXXXXXXXX  XXXXXXXX",
"XXXXXX..  XXXX....XXOOXXXXXX..  XXXXXXXX..OOOOooXX..  XXXXXXXX....XXXXXX..  XXXXXX....XXXXXXXX..  XXXXXXXXOO..XXXXXX..  XXXXXXXX",
"XXXXXX..  XXXX....XXOOXXXXXX..  XXXXXXXX..OOOOooXX..  XXXXXXXX....XXXXXX..  XXXXXX....XXXXXXXX..  XXXXXXXXOO..XXXXXX..  XXXXXXXX",
"....XX..  XX..XXXXOO..XX..XX..  XXXX....XXOOOOooXX..  XXXX..XXXXXXXXXX....  XXXXXXXXXXXX....XX..  XXXXXXXXXXOOXXXXXX..  XXXXXX..",
"....XX..  XX..XXXXOO..XX..XX..  XXXX....XXOOOOooXX..  XXXX..XXXXXXXXXX....  XXXXXXXXXXXX....XX..  XXXXXXXXXXOOXXXXXX..  XXXXXX..",
"XXXXXX..  XXXXXXXXOOXXXXXXXX..  XXXXXXXXXXOOOOooXX..  XXXXXXXXXXXXXXXXXX..  XXXXXXXXXXXXXXXXXX..  XXXX..XXXXOOXX..XX..  XX....XX",
"XXXXXX..  XXXXXXXXOOXXXXXXXX..  XXXXXXXXXXOOOOooXX..  XXXXXXXXXXXXXXXXXX..  XXXXXXXXXXXXXXXXXX..  XXXX..XXXXOOXX..XX..  XX....XX",
"........  ........oo..........  ..........OOOOoo....  ....................  ....................  ..........oo........  ........",
"........  ........oo..........  ..........OOOOoo....  ....................  ....................  ..........oo........  ........",
"                oo                        OOOOoo                                                              oo                ",
"                oo                        OOOOoo                                                              oo                ",
"XXXXXXXXXXXXXXXXooXXXXXXXXXXXXXXXXXXXX  XXOOOOooXXXXXXXXXXXX  XX..XXXXXXXXXXXXXX  XXXXXXXXXXXXXXXXXXXXXX  XXXXOOXXXXXXXXXXXXXX  ",
"XXXXXXXXXXXXXXXXooXXXXXXXXXXXXXXXXXXXX  XXOOOOooXXXXXXXXXXXX  XX..XXXXXXXXXXXXXX  XXXXXXXXXXXXXXXXXXXXXX  XXXXOOXXXXXXXXXXXXXX  ",
"XXXXXX....XXXX..ooXX..XXXXXX....XXXXXX  XXOOOOOOoo....XXXXXX  XXXXXXXXXXXXXX....  XXXXXXXX....XXXXXXXX..  XXXXOOXXXXXXXXXXXX..  ",
"XXXXXX....XXXX..ooXX..XXXXXX....XXXXXX  XXOOOOOOoo....XXXXXX  XXXXXXXXXXXXXX....  XXXXXXXX....XXXXXXXX..  XXXXOOXXXXXXXXXXXX..  ",
"..XX..XXXX..XX..ooXXXXXX..XXXXXXXX....  XXOOOOOOOOOOOOOOOOOOOOOOOOOOOO..XXXXXXXX  XXXXXXXXXXXXXXXXXXXX..  ..XXOO....XXXX..XX..  ",
"..XX..XXXX..XX..ooXXXXXX..XXXXXXXX....  XXOOOOOOOOOOOOOOOOOOOOOOOOOOOO..XXXXXXXX  XXXXXXXXXXXXXXXXXXXX..  ..XXOO....XXXX..XX..  ",
"XXXXXXXXXXXXXX..ooXXXXXXXXXXXXXXXXXXXX  XXOOOOOOOOOOOOOOOOOOOOOOOOOOOOOOXXXXXXXX  XXXX..XXXXXX..XXXXXX..  XXXXOOXXXXXXXXXXXX..  ",
"XXXXXXXXXXXXXX..ooXXXXXXXXXXXXXXXXXXXX  XXOOOOOOOOOOOOOOOOOOOOOOOOOOOOOOXXXXXXXX  XXXX..XXXXXX..XXXXXX..  XXXXOOXXXXXXXXXXXX..  ",
"................oo....................  ..OOOOOOOOoooooooooooooooooooo..........  ......................  ....oo..............  ",
"................oo....................  ..OOOOOOOOoooooooooooooooooooo..........  ......................  ....oo..............  ",
"                oo                        OOOOOOoo                                                            oo                ",
"                oo                        OOOOOOoo                                                            oo                ",
"XX  XXXXXXXXXXXXOOXXXXXX  XXXXXXXXXXXXXXXXOOOOooXXXXXXXXXXXXXXXXXXXX  XXXXXXXXXXXXXXXXXX  XXXXXXXXXXXXXXXXXXXXOO  XXXXXXXXXXXXXX",
"XX  XXXXXXXXXXXXOOXXXXXX  XXXXXXXXXXXXXXXXOOOOooXXXXXXXXXXXXXXXXXXXX  XXXXXXXXXXXXXXXXXX  XXXXXXXXXXXXXXXXXXXXOO  XXXXXXXXXXXXXX",
"..  XXXXXXXX....OOXXXX..  XXXX....XXXXXXXXOOOOooXX..XXXXXXXXXX..XX..  XX..XXXXXXXXXX....  XXXXXXXXXX....XXXXXXOO  XXXXXXXXXX....",
"..  XXXXXXXX....OOXXXX..  XXXX....XXXXXXXXOOOOooXX..XXXXXXXXXX..XX..  XX..XXXXXXXXXX....  XXXXXXXXXX....XXXXXXOO  XXXXXXXXXX....",
"..  XXXXXXXXXXXXXXOOXX..  XXXXXXXXXXXX....OOOOooXXXXXXXX....XXXXXX..  XXXXXXXXXX....XX..  XXXXXXXXXXXXXXXXXXOO..  XXXX..XXXXXXXX",
"..  XXXXXXXXXXXXXXOOXX..  XXXXXXXXXXXX....OOOOooXXXXXXXX....XXXXXX..  XXXXXXXXXX....XX..  XXXXXXXXXXXXXXXXXXOO..  XXXX..XXXXXXXX",
"..  XX....XXXXXXXXOOXX..  XX..XXXXXXXXXXXXOOOOooXXXXXXXXXXXXXXXXXX..  XXXXXXXXXXXXXXXX..  XXXX..XXXXXXXXXXXXOO..  XXXXXXXXXXXXXX",
"..  XX....XXXXXXXXOOXX..  XX..XXXXXXXXXXXXOOOOooXXXXXXXXXXXXXXXXXX..  XXXXXXXXXXXXXXXX..  XXXX..XXXXXXXXXXXXOO..  XXXXXXXXXXXXXX",
"..  ..............oo....  ................OOOOoo....................  ..................  ..................oo..  ..............",
"..  ..............oo....  ................OOOOoo....................  ..................  ..................oo..  ..............",
"                    oo                    OOOOoo                                                          oo                    ",
"                    oo                    OOOOoo                                                          oo                    ",
"XXXXXXXXXX  XXXXXXXXOOXXXXXXXXXX  XXXXXXXXOOOOooXXXXXX  XXXXXXXXXXXXXXXXXXXX  XXXXXXXXXXXXXXXXXX  XXXXXXXXOOXXXXXXXXXXXX  XXXXXX",
"XXXXXXXXXX  XXXXXXXXOOXXXXXXXXXX  XXXXXXXXOOOOooXXXXXX  XXXXXXXXXXXXXXXXXXXX  XXXXXXXXXXXXXXXXXX  XXXXXXXXOOXXXXXXXXXXXX  XXXXXX",
"XXXXXX....  XXXX....XXOOXX..XX..  XXXXXXXXOOOOOOooXX..  XXXX..XXXXXXXXXXXX..  XXXXXXXXXX....XX..  XXXXXXOOXXXXXX..XXXX..  XXXXXX",
"XXXXXX....  XXXX....XXOOXX..XX..  XXXXXXXXOOOOOOooXX..  XXXX..XXXXXXXXXXXX..  XXXXXXXXXX....XX..  XXXXXXOOXXXXXX..XXXX..  XXXXXX",
"....XXXX..  XXXXXXXXXXOOXXXXXX..  XX....XXOOOOOOOOOOOOOOOOOOOOOOOOOOOOOOOOOOOOOOOOOOOOXXXXXXXX..  XX..XXOO....XXXXXXXX..  XXXXXX",
"....XXXX..  XXXXXXXXXXOOXXXXXX..  XX....XXOOOOOOOOOOOOOOOOOOOOOOOOOOOOOOOOOOOOOOOOOOOOXXXXXXXX..  XX..XXOO....XXXXXXXX..  XXXXXX",
"XXXXXXXX..  XXXXXXXXXXXXOOXXXX..  XXXXXXXXXXOOOOOOOOOOOOOOOOOOOOOOOOOOOOOOOOOOOOOOOOOOOOXXXXXX..  XXXXOOXXXXXXXXXXXXXX..  XXXXXX",
"XXXXXXXX..  XXXXXXXXXXXXOOXXXX..  XXXXXXXXXXOOOOOOOOOOOOOOOOOOOOOOOOOOOOOOOOOOOOOOOOOOOOXXXXXX..  XXXXOOXXXXXXXXXXXXXX..  XXXXXX",
"..........  ..............oo....  ............oooooooooooooooooooooooooooooooooooooooo..........  ..oo..................  ......",
"..........  ..............oo....  ............oooooooooooooooooooooooooooooooooooooooo..........  ..oo..................  ......",
"                            oo                                                                    oo                            ",
"                            oo                                                                    oo                            ",
"XXXXXXXXXXXXXXXXXX  XXXXXXXXXXOOXXXXXXXX  XXXXXXXXXXXXXXXXXXXX  XXXXXXXXXXXXXXXXXXXX  XXXXXXXXXXOOXXXXXX  XXXXXXXXXXXXXXXXXXXX  ",
"XXXXXXXXXXXXXXXXXX  XXXXXXXXXXOOXXXXXXXX  XXXXXXXXXXXXXXXXXXXX  XXXXXXXXXXXXXXXXXXXX  XXXXXXXXXXOOXXXXXX  XXXXXXXXXXXXXXXXXXXX  ",
"XXXXXXXXXXXXXXXX..  XXXXXX..XXXXOOXXXX..  XXXXXXXXXXXXXXXXXX..  XXXXXXXXXXXXXXXX....  XXXXXXXXOOXXXXXX..  XXXXXXXXXXXXXXXXXX..  ",
"XXXXXXXXXXXXXXXX..  XXXXXX..XXXXOOXXXX..  XXXXXXXXXXXXXXXXXX..  XXXXXXXXXXXXXXXX....  XXXXXXXXOOXXXXXX..  XXXXXXXXXXXXXXXXXX..  ",
"XX....XX..XXXXXX..  XXXXXXXXXXXX..OOOO..  XXXXXXXX..XX....XX..  XXXXXX..XX....XXXX..  XXXXOOOOXXXX..XX..  XXXX....XXXX....XX..  ",
"XX....XX..XXXXXX..  XXXXXXXXXXXX..OOOO..  XXXXXXXX..XX....XX..  XXXXXX..XX....XXXX..  XXXXOOOOXXXX..XX..  XXXX....XXXX....XX..  ",
"XXXXXXXXXXXXXXXX..  XXXXXXXXXXXXXXXXXXOOooXXXXXXXXXXXXXXXXXX..  XXXXXXXXXXXXXXXXXX..  OOOOXXXX..XXXXXX..  XXXXXXXX..XXXXXXXX..  ",
"XXXXXXXXXXXXXXXX..  XXXXXXXXXXXXXXXXXXOOooXXXXXXXXXXXXXXXXXX..  XXXXXXXXXXXXXXXXXX..  OOOOXXXX..XXXXXX..  XXXXXXXX..XXXXXXXX..  ",
"..................  ....................  oooo................  ..................oooo..................  ....................  ",
"..................  ....................  oooo................  ..................oooo..................  ....................  ",
"                                              oooooooo                    oooooooo                                              ",
"                                              oooooooo                    oooooooo                                              ",
"XXXX  XXXXXXXXXXXXXXXXXXXX  XXXXXXXXXXXXXXXXXXXX  XXXXOOOOOOOOOOOOOOOOooOOXXXXXXXXXXXXXXXXXX  XXXXXXXXXXXXXXXXXX  XXXXXXXXXXXXXX",
"XXXX  XXXXXXXXXXXXXXXXXXXX  XXXXXXXXXXXXXXXXXXXX  XXXXOOOOOOOOOOOOOOOOooOOXXXXXXXXXXXXXXXXXX  XXXXXXXXXXXXXXXXXX  XXXXXXXXXXXXXX",
"XX..  XXXXXXXXXXXXXXXXXX..  XXXXXXXXXXXXXXXXXX..  XXXXXXXXXXXXXXXXXX..  XXXXXXXXXXXXXXXXXX..  XXXXXXXXXX....XX..  XXXXXXXXXXXXXX",
"XX..  XXXXXXXXXXXXXXXXXX..  XXXXXXXXXXXXXXXXXX..  XXXXXXXXXXXXXXXXXX..  XXXXXXXXXXXXXXXXXX..  XXXXXXXXXX....XX..  XXXXXXXXXXXXXX",
"XX..  XXXX....XXXXXXXX....  XXXX....XXXX..XXXX..  XXXXXXXXXX....XXXX..  XXXXXXXXXXXX..XXXX..  XXXXXXXXXXXXXXXX..  XX....XXXX..XX",
"XX..  XXXX....XXXXXXXX....  XXXX....XXXX..XXXX..  XXXXXXXXXX....XXXX..  XXXXXXXXXXXX..XXXX..  XXXXXXXXXXXXXXXX..  XX....XXXX..XX",
"XX..  XXXXXXXXXXXX..XXXX..  XXXXXXXXXXXXXX..XX..  XXXXXXXXXXXXXXXX....  XXXX....XXXXXXXXXX..  XXXX..XX..XXXXXX..  XXXXXXXXXXXXXX",
"XX..  XXXXXXXXXXXX..XXXX..  XXXXXXXXXXXXXX..XX..  XXXXXXXXXXXXXXXX....  XXXX....XXXXXXXXXX..  XXXX..XX..XXXXXX..  XXXXXXXXXXXXXX",
"....  ....................  ....................  ....................  ....................  ..................  ..............",
"....  ....................  ....................  ....................  ....................  ..................  ..............",
"                                                                                                                                ",
"                                                                                                                                ",
"XXXXXXXXXXXX  XXXXXXXXXXXXXXXXXXXX  XXXXXXXXXXXXXXXXXXXX  XXXXXXXXXXXXXXXXXXXX  XXXXXXXXXXXXXXXXXXXXXX  XXXXXXXXXXXXXXXXXXXX  XX",
"XXXXXXXXXXXX  XXXXXXXXXXXXXXXXXXXX  XXXXXXXXXXXXXXXXXXXX  XXXXXXXXXXXXXXXXXXXX  XXXXXXXXXXXXXXXXXXXXXX  XXXXXXXXXXXXXXXXXXXX  XX",
"XXXXXXXXXX..  XXXXXXXXXXXXXXXXXX..  XXXXXXXXXXXXXXXXXX..  XXXXXXXXXXXXXXXXXX..  XXXXXXXXXXXXXXXXXXXX..  XXXXXXXXXXXX..XXXX..  XX",
"XXXXXXXXXX..  XXXXXXXXXXXXXXXXXX..  XXXXXXXXXXXXXXXXXX..  XXXXXXXXXXXXXXXXXX..  XXXXXXXXXXXXXXXXXXXX..  XXXXXXXXXXXX..XXXX..  XX",
"..XXXXXX....  XXXX....XXXX..XXXX..  XXXXXX..XXXX....XX..  XXXX..XXXXXXXX..XX..  XXXXXX....XXXXXX..XX..  XXXX....XXXXXXXX....  XX",
"..XXXXXX....  XXXX....XXXX..XXXX..  XXXXXX..XXXX....XX..  XXXX..XXXXXXXX..XX..  XXXXXX....XXXXXX..XX..  XXXX....XXXXXXXX....  XX",
"XXXXXX..XX..  XXXXXXXXXXXXXX..XX..  XXXXXXXXXXXXXXXXXX..  XXXXXXXX....XXXXXX..  XXXXXXXXXXXX..XXXXXX..  XXXXXXXXXXXXXXXXXX..  XX",
"XXXXXX..XX..  XXXXXXXXXXXXXX..XX..  XXXXXXXXXXXXXXXXXX..  XXXXXXXX....XXXXXX..  XXXXXXXXXXXX..XXXXXX..  XXXXXXXXXXXXXXXXXX..  XX",
"............  ....................  ....................  ....................  ......................  ....................  ..",
"............  ....................  ....................  ....................  ......................  ....................  ..",
"                                                                                                                                ",
"                                                                                                                                "
};
