/* XPM */
static char *bigger[] = {
/* columns rows colors chars-per-pixel */
"32 32 43 1 ",
"  c #115A48",
". c #14755D",
"X c #177F66",
"o c #41645B",
"O c #447E6F",
"+ c #1A8A6F",
"@ c #4D8A7B",
"# c #1DB58F",
"$ c #479984",
"% c #509584",
"& c #748882",
"* c #7D948E",
"= c #4AA48D",
"- c #4DAF96",
"; c #77A397",
": c #7ABEAC",
"> c #20C098",
", c #23CAA1",
"< c #26D5AA",
"1 c #53D4B4",
"2 c #59D5B6",
"3 c #7DC8B5",
"4 c #5CE0BF",
"5 c #80AEA2",
"6 c #8ABAAE",
"7 c #A7ADAA",
"8 c #B0B8B5",
"9 c #80D3BE",
"0 c #AAC7BE",
"q c #86D4C0",
"w c #8DD5C3",
"e c #89DFC9",
"r c #90DFCC",
"t c #ADD2C7",
"y c #B6DED3",
"u c #93EAD5",
"i c #DAD1D1",
"p c #E3DDDD",
"a c #C0E9DE",
"s c #C9F5EA",
"d c #EDE8E8",
"f c #F6F4F4",
"g c white",
/* pixels */
"<<><>+<<,<.<,<<>+<<,<.<<,,>+<,<,",
"..... .... ..... .... ..... ....",
"<X<,,<,+<<,,X<<<<,+<<,<X<<<<,+<<",
",.<<<,>+,<<<.<,,,>+,<<<.,<<<>+,,",
". ..... .... ..... .... ..... ..",
"<<<X<<<>,+<4uu5uuuue-,,<<X<<,<,+",
"<><.<><<>%u4<>.,<><>%u4><.<<,,>+",
"... ....5O.... ..... .O;. ..... ",
"+<<,<X<u<>,+<4ug8u2<<,+,u<<X<<,<",
"+,<<>.u,<<>+uf99;yg2,>X<,r,.,,<,",
" ....;.....&iO.. .7i.. ...; ....",
"<,+,,u<X<<,fd+<,,<X1,,<,+<u,<X<<",
">>+,u,,.<><ef-,<<,.<<<>>+,<u,.,>",
".. .5.. ....8p$... ..... ..;. ..",
"<,,,u,<><+,<,3dpgsu>+<,,<,+u<<<X",
",,,>u<,<,X<><<,+99fa+,<,<>Xu><,.",
"....5.... ..... ..Oi0$.... ;... ",
"X<<>u,+,,<<X,<<,,+,ug>+<<><u+<<>",
".,,<u>+,<,,@<<><>+<ugw+,<<<w+,<<",
" ...O$ ...5p$.... .;iO ...$O ...",
"<,X<>u,,+<,yg%<,<<4dy<>,+<u<,,+<",
"><.<<44>+><,ydu<,rgt,,<>+22,<>+<",
".. ...O$ ....7dddd* ....OO.... .",
"<<<<X<,44,+<<<<=1<<<>+<44,+<<<<X",
",,,<.<<<2q-<,,,.<,,,>%u2,>+,>,,.",
".... .....o;:$. ..$:;O.... .... ",
",+<<<<X<<<<,+4uuu64<<<,+<<>,+<<<",
">+,,,,.<><>>+<<>,.<><,>+,,<>+><,",
". .... ..... .... ..... .... ...",
"<<,+<<<<X<<<<,+<<<<X<<<<<X<<<,,+",
",,#+,,,,.<,<>>+,,,,.<,,,,.<><<#+",
"... .... ..... .... ..... ..... "
};
