/* XPM */
static char *bigger[] = {
/* columns rows colors chars-per-pixel */
"32 32 36 1 ",
"  c #115A48",
". c #14755D",
"X c #177F66",
"o c #41645B",
"O c #447E6F",
"+ c #1A8A6F",
"@ c #478978",
"# c #1DB58F",
"$ c #479984",
"% c #509584",
"& c #4DAF96",
"* c #50A590",
"= c #77A397",
"- c #56BAA2",
"; c #7ABEAC",
": c #20C098",
"> c #23CAA1",
", c #26D5AA",
"< c #50C9AB",
"1 c #59D5B6",
"2 c #7DC8B5",
"3 c #5CE0BF",
"4 c #879F99",
"5 c #80AEA2",
"6 c #8ABAAE",
"7 c #80D3BE",
"8 c #86D4C0",
"9 c #8DD5C3",
"0 c #89DFC9",
"q c #90DFCC",
"w c #93EAD5",
"e c #C6EAE1",
"r c #C9F5EA",
"t c #EDE8E8",
"y c #F6F4F4",
"u c white",
/* pixels */
",,:,:+,,>,.,>,,:+,,>,.,,>>:+,>,>",
"..... .... ..... .... ..... ....",
",X,>>,>+,,>>X,,,,>+,,>,X,,,,>+,,",
">.,,,>:+>,,,.,>>>:+>,,,.>,,,:+>>",
". ..... .... ..... .... ..... ..",
",,,X,,,:>+,3ww5wwwww&>>,,X,,>,>+",
",:,.,:,,:%w3,:.>,:,:%w3:,.,,>>:+",
"... ....=O.... ..... .O=. ..... ",
"+,,>,X,w,:>+,,>>X,:,,>+>w,,X,,>,",
"+>,,:.w>,,:-::,,.,,>1:X,>q>.>>,>",
" ....=....6u*... ...u5 ...= ....",
",>+>>w,X,,qur+,>>,X,u7,>+,w>,X,,",
"::+>w>>.,:wuyr>,,>.,u7::+>,w>.>:",
".. .=.. ..6yOye... .u=.. ..=. ..",
",>>>w>,:,+wt><yr>,,:u7>>,>+w,,,X",
">>>:w,>,>Xwt,,<yr>,,u2,>,:Xw:,>.",
"....=.... 6t...oye..u=.... =... ",
"X,,:w>+>>,wt>,,><yr,u2+,,:,w+,,:",
".>>,w:+>,>qt,,:,:@yru;+>,,,9+>,,",
" ...O$ ...6t..... Oyu= ...$O ...",
",>X,:w>>+,wt,X,>,,>4u7:>+,w,>>+,",
":,.,,33:+:0t,.,,>>:@y7,:+11>,:+,",
".. ...O$ ..O. ..... O...OO.... .",
",,,,X,>33>+,,,,X,,,,:+,33>+,,,,X",
">>>,.,,,18&,>>>.,>>>:%w1>:+>:>>.",
".... .....o=;$. ..$;=O.... .... ",
">+,,,,X,,,,>+3www53,,,>+,,:>+,,,",
":+>>>>.,:,::+,,:>.,:,>:+>>,:+:,>",
". .... ..... .... ..... .... ...",
",,>+,,,,X,,,,>+,,,,X,,,,,X,,,>>+",
">>#+>>>>.,>,::+>>>>.,>>>>.,:,,#+",
"... .... ..... .... ..... ..... "
};
