/* XPM */
static char *bigger[] = {
/* columns rows colors chars-per-pixel */
"128 128 5 1 ",
"  c #0E3F33",
". c #1AAA86",
"X c #26D5AA",
"o c #DAD1D1",
"O c white",
/* pixels */
"XXXXXXXX....XXXXXX..  XXXXXXXXXXXX..XXXX..  XXXXXXXXXXXXXXXXXX..  XXXXXXXXXXXXXXXXXX..  XXXXXXXXXX....XXXX..  XXXXXX..XXXXXXXXXX",
"XXXXXXXX....XXXXXX..  XXXXXXXXXXXX..XXXX..  XXXXXXXXXXXXXXXXXX..  XXXXXXXXXXXXXXXXXX..  XXXXXXXXXX....XXXX..  XXXXXX..XXXXXXXXXX",
"XXXXXXXXXXXXXXXXXX..  XXXXXXXXXXXXXXXXXX..  XXXXXX..XXXXXXXXXX..  XXXXXXXXXXXX..XXXX..  XXXXXXXXXXXXXXXXXX..  XXXXXXXXXXXXXX..XX",
"XXXXXXXXXXXXXXXXXX..  XXXXXXXXXXXXXXXXXX..  XXXXXX..XXXXXXXXXX..  XXXXXXXXXXXX..XXXX..  XXXXXXXXXXXXXXXXXX..  XXXXXXXXXXXXXX..XX",
"....................  ....................  ....................  ....................  ....................  ..................",
"....................  ....................  ....................  ....................  ....................  ..................",
"                                                                                                                                ",
"                                                                                                                                ",
"XXXXXX  XXXXXXXXXXXXXXXXXXXX  XXXXXXXXXXXXXXXXXXXX  XXXXXXXXXXXXXXXXXXXX  XXXXXXXXXXXXXXXXXXXX  XXXXXXXXXXXXXXXXXXXX  XXXXXXXXXX",
"XXXXXX  XXXXXXXXXXXXXXXXXXXX  XXXXXXXXXXXXXXXXXXXX  XXXXXXXXXXXXXXXXXXXX  XXXXXXXXXXXXXXXXXXXX  XXXXXXXXXXXXXXXXXXXX  XXXXXXXXXX",
"XXXX..  XXXXXX....XXXXXXXX..  XXXXXXXXXXXX....XX..  XXXXXXXXXXXXXXXXXX..  XXXXXXXXXXXX..XXXX..  XXXXXXXXXXXXXXXXXX..  XXXXXXXXXX",
"XXXX..  XXXXXX....XXXXXXXX..  XXXXXXXXXXXX....XX..  XXXXXXXXXXXXXXXXXX..  XXXXXXXXXXXX..XXXX..  XXXXXXXXXXXXXXXXXX..  XXXXXXXXXX",
"XX....  XXXXXXXXXXXX..XXXX..  XXXX..XXXXXXXXXXXX..  XXXXXX....XXXXXXXX..  XXXX..XXXXXXXXXXXX..  XX..XXXXXXXXXXXXXX..  XXXX....XX",
"XX....  XXXXXXXXXXXX..XXXX..  XXXX..XXXXXXXXXXXX..  XXXXXX....XXXXXXXX..  XXXX..XXXXXXXXXXXX..  XX..XXXXXXXXXXXXXX..  XXXX....XX",
"XXXX..  XXXXXXXXXXXXXXXXXX..  XXXXXXXXXXXXXXXXXX..  XXXXXXXXXXXX..XXXX..  XXXXXXXXXXXXXXXXXX..  XXXXXXXXXXXXXXXXXX..  XXXXXXXXXX",
"XXXX..  XXXXXXXXXXXXXXXXXX..  XXXXXXXXXXXXXXXXXX..  XXXXXXXXXXXX..XXXX..  XXXXXXXXXXXXXXXXXX..  XXXXXXXXXXXXXXXXXX..  XXXXXXXXXX",
"......  ....................  ....................  ....................  ....................  ....................  ..........",
"......  ....................  ....................  ....................  ....................  ....................  ..........",
"                                                                                                                                ",
"                                                                                                                                ",
"XXXXXXXXXXXXXX  XXXXXXXXXXXXXXXXXXXX  XXXXXXXXXXXXXXXXOOOOooOOOOOOOOOOOOOOXXXXXX  XXXXXXXXXXXXXXXXXXXX  XXXXXXXXXXXXXXXXXXXX  XX",
"XXXXXXXXXXXXXX  XXXXXXXXXXXXXXXXXXXX  XXXXXXXXXXXXXXXXOOOOooOOOOOOOOOOOOOOXXXXXX  XXXXXXXXXXXXXXXXXXXX  XXXXXXXXXXXXXXXXXXXX  XX",
"XXXXXXXXXXXX..  XXXXXXXXXXXX....XX..  XXXXXXXXOOOOOOOOXX..  XXXXXXXXXXXXXXOOOOOOooXXXX....XXXXXXXXXX..  XXXXXXXX..XXXXXXXX..  XX",
"XXXXXXXXXXXX..  XXXXXXXXXXXX....XX..  XXXXXXXXOOOOOOOOXX..  XXXXXXXXXXXXXXOOOOOOooXXXX....XXXXXXXXXX..  XXXXXXXX..XXXXXXXX..  XX",
"XXXX....XXXX..  XXXX....XXXXXXXXXX..  XXXXOOOOXXXXXX..XX..  XXXXXXXX....XXXXXX..  OOOOXXXXXXXXXXXXXX..  XXXXXXXXXX....XXXX..  XX",
"XXXX....XXXX..  XXXX....XXXXXXXXXX..  XXXXOOOOXXXXXX..XX..  XXXXXXXX....XXXXXX..  OOOOXXXXXXXXXXXXXX..  XXXXXXXXXX....XXXX..  XX",
"XXXXXXXXXXXX..  XXXXXXXXXXXXXXXXXX..  OOOOXXXXXXXXXXXX....  XX..XXXXXXXXXXXXXX..  XXXXOOOOXX....XXXX..  XXXXXXXXXXXXXXXXXX..  XX",
"XXXXXXXXXXXX..  XXXXXXXXXXXXXXXXXX..  OOOOXXXXXXXXXXXX....  XX..XXXXXXXXXXXXXX..  XXXXOOOOXX....XXXX..  XXXXXXXXXXXXXXXXXX..  XX",
"..............  ..................oooo....................  ....................  ........oooo........  ....................  ..",
"..............  ..................oooo....................  ....................  ........oooo........  ....................  ..",
"                                oo                                                            oo                                ",
"                                oo                                                            oo                                ",
"  XXXXXXXXXXXXXXXXXXXX  XXXXXXOOXXXXXXXXXXXX  XXXXXXXXXXXXXXXXXXXX  XXXXXXXXXXXXXXXXXXXX  XXXXXXOOXXXXXXXXXXXX  XXXXXXXXXXXXXXXX",
"  XXXXXXXXXXXXXXXXXXXX  XXXXXXOOXXXXXXXXXXXX  XXXXXXXXXXXXXXXXXXXX  XXXXXXXXXXXXXXXXXXXX  XXXXXXOOXXXXXXXXXXXX  XXXXXXXXXXXXXXXX",
"  XXXXXXXXXX..XXXXXX..  XXXXOOXXXXXX....XX..  XXXXXXXXXXXX....XX..  XXXX....XXXXXXXXXX..  XXXX..XXOOXXXXXXXX..  XXXXXXXX..XXXXXX",
"  XXXXXXXXXX..XXXXXX..  XXXXOOXXXXXX....XX..  XXXXXXXXXXXX....XX..  XXXX....XXXXXXXXXX..  XXXX..XXOOXXXXXXXX..  XXXXXXXX..XXXXXX",
"  XXXX..XXXXXXXX......  XXOO..XXXXXXXXXXXX..  XXXXXX....XXXXXXXX..  XXXXXXXXXX....XXXX..  XXXXXXXXXXOO....XX..  XX....XXXXXX..XX",
"  XXXX..XXXXXXXX......  XXOO..XXXXXXXXXXXX..  XXXXXX....XXXXXXXX..  XXXXXXXXXX....XXXX..  XXXXXXXXXXOO....XX..  XX....XXXXXX..XX",
"  XXXXXXXXXXXXXXXXXX..  OOXXXXXXXXXXXXXXXX..OOXX....XXXXXXXXXXXX..  XXXXXXXXXXXXXXOOXX..  ..XXXX..XXXXOOXXXX..  XXXXXXXXXXXXXXXX",
"  XXXXXXXXXXXXXXXXXX..  OOXXXXXXXXXXXXXXXX..OOXX....XXXXXXXXXXXX..  XXXXXXXXXXXXXXOOXX..  ..XXXX..XXXXOOXXXX..  XXXXXXXXXXXXXXXX",
"  ....................oo..................OOOOOO..................  ............OOOOOO..  ..............oo....  ................",
"  ....................oo..................OOOOOO..................  ............OOOOOO..  ..............oo....  ................",
"                      oo                  OOOOOOOO                              OOOOoo                  oo                      ",
"                      oo                  OOOOOOOO                              OOOOoo                  oo                      ",
"XXXXXXXX  XXXXXXXXXXOOXXXXXXXX  XXXXXXXXXXOOOOOOOOXX  XXXXXXXXXXXXXXXXXXXX  XXXXOOOOooXXXXXXXXXX  XXXXXXXXOOXXXXXXXXXX  XXXXXXXX",
"XXXXXXXX  XXXXXXXXXXOOXXXXXXXX  XXXXXXXXXXOOOOOOOOXX  XXXXXXXXXXXXXXXXXXXX  XXXXOOOOooXXXXXXXXXX  XXXXXXXXOOXXXXXXXXXX  XXXXXXXX",
"XXXXXX..  XXXX....XXOOXXXXXX..  XXXXXXXX..OOOOOOOOOO  XXXXXXXX....XXXXXX..  XXXXOOOOooXXXXXXXX..  XXXXXXXXOO..XXXXXX..  XXXXXXXX",
"XXXXXX..  XXXX....XXOOXXXXXX..  XXXXXXXX..OOOOOOOOOO  XXXXXXXX....XXXXXX..  XXXXOOOOooXXXXXXXX..  XXXXXXXXOO..XXXXXX..  XXXXXXXX",
"....XX..  XX..XXXXOO..XX..XX..  XXXX....XXOOOOOOOOOOOOXXXX..XXXXXXXXXX....  XXXXOOOOooXX....XX..  XXXXXXXXXXOOXXXXXX..  XXXXXX..",
"....XX..  XX..XXXXOO..XX..XX..  XXXX....XXOOOOOOOOOOOOXXXX..XXXXXXXXXX....  XXXXOOOOooXX....XX..  XXXXXXXXXXOOXXXXXX..  XXXXXX..",
"XXXXXX..  XXXXXXXXOOXXXXXXXX..  XXXXXXXXXXOOOOOOooOOOOOOXXXXXXXXXXXXXXXX..  XXXXOOOOooXXXXXXXX..  XXXX..XXXXOOXX..XX..  XX....XX",
"XXXXXX..  XXXXXXXXOOXXXXXXXX..  XXXXXXXXXXOOOOOOooOOOOOOXXXXXXXXXXXXXXXX..  XXXXOOOOooXXXXXXXX..  XXXX..XXXXOOXX..XX..  XX....XX",
"........  ........oo..........  ..........OOOOOO..ooOOOOOO................  ....OOOOoo..........  ..........oo........  ........",
"........  ........oo..........  ..........OOOOOO..ooOOOOOO................  ....OOOOoo..........  ..........oo........  ........",
"                oo                        OOOOoo    ooOOOOOO                    OOOOoo                        oo                ",
"                oo                        OOOOoo    ooOOOOOO                    OOOOoo                        oo                ",
"XXXXXXXXXXXXXXXXOOXXXXXXXXXXXXXXXXXXXX  XXOOOOooXXXXXXooOOOOOOXX..XXXXXXXXXXXXXXOOOOooXXXXXXXXXXXXXXXXXX  XXXXOOXXXXXXXXXXXXXX  ",
"XXXXXXXXXXXXXXXXOOXXXXXXXXXXXXXXXXXXXX  XXOOOOooXXXXXXooOOOOOOXX..XXXXXXXXXXXXXXOOOOooXXXXXXXXXXXXXXXXXX  XXXXOOXXXXXXXXXXXXXX  ",
"XXXXXX....XXXX..OOXX..XXXXXX....XXXXXX  XXOOOOooXX....XXooOOOOOOXXXXXXXXXXXX....OOOOooXXXX....XXXXXXXX..  XXXXOOXXXXXXXXXXXX..  ",
"XXXXXX....XXXX..OOXX..XXXXXX....XXXXXX  XXOOOOooXX....XXooOOOOOOXXXXXXXXXXXX....OOOOooXXXX....XXXXXXXX..  XXXXOOXXXXXXXXXXXX..  ",
"..XX..XXXX..XX..OOXXXXXX..XXXXXXXX....  XXOOOOooXXXXXXXXXXooOOOOOOXXXX..XXXXXXXXOOOOooXXXXXXXXXXXXXXXX..  ..XXOO....XXXX..XX..  ",
"..XX..XXXX..XX..OOXXXXXX..XXXXXXXX....  XXOOOOooXXXXXXXXXXooOOOOOOXXXX..XXXXXXXXOOOOooXXXXXXXXXXXXXXXX..  ..XXOO....XXXX..XX..  ",
"XXXXXXXXXXXXXX..OOXXXXXXXXXXXXXXXXXXXX  XXOOOOooXXXXXXXX..XXooOOOOOOXXXXXXXXXXXXOOOOoo..XXXXXX..XXXXXX..  XXXXOOXXXXXXXXXXXX..  ",
"XXXXXXXXXXXXXX..OOXXXXXXXXXXXXXXXXXXXX  XXOOOOooXXXXXXXX..XXooOOOOOOXXXXXXXXXXXXOOOOoo..XXXXXX..XXXXXX..  XXXXOOXXXXXXXXXXXX..  ",
"................oo....................  ..OOOOoo............  ooOOOOOO..........OOOOoo..................  ....oo..............  ",
"................oo....................  ..OOOOoo............  ooOOOOOO..........OOOOoo..................  ....oo..............  ",
"                oo                        OOOOoo                ooOOOOOO        OOOOoo                        oo                ",
"                oo                        OOOOoo                ooOOOOOO        OOOOoo                        oo                ",
"XX  XXXXXXXXXXXXOOXXXXXX  XXXXXXXXXXXXXXXXOOOOooXXXXXXXXXXXXXXXXXXooOOOOOOXXXXXXOOOOooXX  XXXXXXXXXXXXXXXXXXXXOO  XXXXXXXXXXXXXX",
"XX  XXXXXXXXXXXXOOXXXXXX  XXXXXXXXXXXXXXXXOOOOooXXXXXXXXXXXXXXXXXXooOOOOOOXXXXXXOOOOooXX  XXXXXXXXXXXXXXXXXXXXOO  XXXXXXXXXXXXXX",
"..  XXXXXXXX....OOXXXX..  XXXX....XXXXXXXXOOOOooXX..XXXXXXXXXX..XX..ooOOOOOOXXXXOOOOoo..  XXXXXXXXXX....XXXXXXOO  XXXXXXXXXX....",
"..  XXXXXXXX....OOXXXX..  XXXX....XXXXXXXXOOOOooXX..XXXXXXXXXX..XX..ooOOOOOOXXXXOOOOoo..  XXXXXXXXXX....XXXXXXOO  XXXXXXXXXX....",
"..  XXXXXXXXXXXXXXOOXX..  XXXXXXXXXXXX....OOOOooXXXXXXXX....XXXXXX..  ooOOOOOOXXOOOOoo..  XXXXXXXXXXXXXXXXXXOO..  XXXX..XXXXXXXX",
"..  XXXXXXXXXXXXXXOOXX..  XXXXXXXXXXXX....OOOOooXXXXXXXX....XXXXXX..  ooOOOOOOXXOOOOoo..  XXXXXXXXXXXXXXXXXXOO..  XXXX..XXXXXXXX",
"..  XX....XXXXXXXXOOXX..  XX..XXXXXXXXXXXXOOOOooXXXXXXXXXXXXXXXXXX..  XXooOOOOOOOOOOoo..  XXXX..XXXXXXXXXXXXOO..  XXXXXXXXXXXXXX",
"..  XX....XXXXXXXXOOXX..  XX..XXXXXXXXXXXXOOOOooXXXXXXXXXXXXXXXXXX..  XXooOOOOOOOOOOoo..  XXXX..XXXXXXXXXXXXOO..  XXXXXXXXXXXXXX",
"..  ..............oo....  ................OOOOoo....................  ....ooOOOOOOOOoo..  ..................oo..  ..............",
"..  ..............oo....  ................OOOOoo....................  ....ooOOOOOOOOoo..  ..................oo..  ..............",
"                    oo                    OOOOoo                            ooOOOOOOoo                    oo                    ",
"                    oo                    OOOOoo                            ooOOOOOOoo                    oo                    ",
"XXXXXXXXXX  XXXXXXXXOOXXXXXXXXXX  XXXXXXXXOOOOooXXXXXX  XXXXXXXXXXXXXXXXXXXX  OOOOOOooXXXXXXXXXX  XXXXXXXXOOXXXXXXXXXXXX  XXXXXX",
"XXXXXXXXXX  XXXXXXXXOOXXXXXXXXXX  XXXXXXXXOOOOooXXXXXX  XXXXXXXXXXXXXXXXXXXX  OOOOOOooXXXXXXXXXX  XXXXXXXXOOXXXXXXXXXXXX  XXXXXX",
"XXXXXX....  XXXX....XXOOXX..XX..  XXXXXXXXOOOOooXXXX..  XXXX..XXXXXXXXXXXX..  OOOOOOooXX....XX..  XXXXXXOOXXXXXX..XXXX..  XXXXXX",
"XXXXXX....  XXXX....XXOOXX..XX..  XXXXXXXXOOOOooXXXX..  XXXX..XXXXXXXXXXXX..  OOOOOOooXX....XX..  XXXXXXOOXXXXXX..XXXX..  XXXXXX",
"....XXXX..  XXXXXXXXXXOOXXXXXX..  XX....XXOOOOooXXXX..  XXXXXXXXXX....XXXX..  ooOOOOooXXXXXXXX..  XX..XXOO....XXXXXXXX..  XXXXXX",
"....XXXX..  XXXXXXXXXXOOXXXXXX..  XX....XXOOOOooXXXX..  XXXXXXXXXX....XXXX..  ooOOOOooXXXXXXXX..  XX..XXOO....XXXXXXXX..  XXXXXX",
"XXXXXXXX..  XXXXXXXXXXXXOOXXXX..  XXXXXXXXooOOooXXXX..  XXXXXXXXXXXXXXXXXX..  XXooOOooXXXXXXXX..  XXXXOOXXXXXXXXXXXXXX..  XXXXXX",
"XXXXXXXX..  XXXXXXXXXXXXOOXXXX..  XXXXXXXXooOOooXXXX..  XXXXXXXXXXXXXXXXXX..  XXooOOooXXXXXXXX..  XXXXOOXXXXXXXXXXXXXX..  XXXXXX",
"..........  ..............oo....  ..........oo........  ....................  ....oo............  ..oo..................  ......",
"..........  ..............oo....  ..........oo........  ....................  ....oo............  ..oo..................  ......",
"                            oo                                                                    oo                            ",
"                            oo                                                                    oo                            ",
"XXXXXXXXXXXXXXXXXX  XXXXXXXXXXOOXXXXXXXX  XXXXXXXXXXXXXXXXXXXX  XXXXXXXXXXXXXXXXXXXX  XXXXXXXXXXOOXXXXXX  XXXXXXXXXXXXXXXXXXXX  ",
"XXXXXXXXXXXXXXXXXX  XXXXXXXXXXOOXXXXXXXX  XXXXXXXXXXXXXXXXXXXX  XXXXXXXXXXXXXXXXXXXX  XXXXXXXXXXOOXXXXXX  XXXXXXXXXXXXXXXXXXXX  ",
"XXXXXXXXXXXXXXXX..  XXXXXX..XXXXOOXXXX..  XXXXXXXXXXXXXXXXXX..  XXXXXXXXXXXXXXXX....  XXXXXXXXOOXXXXXX..  XXXXXXXXXXXXXXXXXX..  ",
"XXXXXXXXXXXXXXXX..  XXXXXX..XXXXOOXXXX..  XXXXXXXXXXXXXXXXXX..  XXXXXXXXXXXXXXXX....  XXXXXXXXOOXXXXXX..  XXXXXXXXXXXXXXXXXX..  ",
"XX....XX..XXXXXX..  XXXXXXXXXXXX..OOOO..  XXXXXXXX..XX....XX..  XXXXXX..XX....XXXX..  XXXXOOOOXXXX..XX..  XXXX....XXXX....XX..  ",
"XX....XX..XXXXXX..  XXXXXXXXXXXX..OOOO..  XXXXXXXX..XX....XX..  XXXXXX..XX....XXXX..  XXXXOOOOXXXX..XX..  XXXX....XXXX....XX..  ",
"XXXXXXXXXXXXXXXX..  XXXXXXXXXXXXXXXXXXooooXXXXXXXXXXXXXXXXXX..  XXXXXXXXXXXXXXXXXX..  OOOOXXXX..XXXXXX..  XXXXXXXX..XXXXXXXX..  ",
"XXXXXXXXXXXXXXXX..  XXXXXXXXXXXXXXXXXXooooXXXXXXXXXXXXXXXXXX..  XXXXXXXXXXXXXXXXXX..  OOOOXXXX..XXXXXX..  XXXXXXXX..XXXXXXXX..  ",
"..................  ....................  oooo................  ..................oooo..................  ....................  ",
"..................  ....................  oooo................  ..................oooo..................  ....................  ",
"                                              oooooooo                    oooooooo                                              ",
"                                              oooooooo                    oooooooo                                              ",
"XXXX  XXXXXXXXXXXXXXXXXXXX  XXXXXXXXXXXXXXXXXXXX  XXXXOOOOOOOOOOOOOOOOooOOXXXXXXXXXXXXXXXXXX  XXXXXXXXXXXXXXXXXX  XXXXXXXXXXXXXX",
"XXXX  XXXXXXXXXXXXXXXXXXXX  XXXXXXXXXXXXXXXXXXXX  XXXXOOOOOOOOOOOOOOOOooOOXXXXXXXXXXXXXXXXXX  XXXXXXXXXXXXXXXXXX  XXXXXXXXXXXXXX",
"XX..  XXXXXXXXXXXXXXXXXX..  XXXXXXXXXXXXXXXXXX..  XXXXXXXXXXXXXXXXXX..  XXXXXXXXXXXXXXXXXX..  XXXXXXXXXX....XX..  XXXXXXXXXXXXXX",
"XX..  XXXXXXXXXXXXXXXXXX..  XXXXXXXXXXXXXXXXXX..  XXXXXXXXXXXXXXXXXX..  XXXXXXXXXXXXXXXXXX..  XXXXXXXXXX....XX..  XXXXXXXXXXXXXX",
"XX..  XXXX....XXXXXXXX....  XXXX....XXXX..XXXX..  XXXXXXXXXX....XXXX..  XXXXXXXXXXXX..XXXX..  XXXXXXXXXXXXXXXX..  XX....XXXX..XX",
"XX..  XXXX....XXXXXXXX....  XXXX....XXXX..XXXX..  XXXXXXXXXX....XXXX..  XXXXXXXXXXXX..XXXX..  XXXXXXXXXXXXXXXX..  XX....XXXX..XX",
"XX..  XXXXXXXXXXXX..XXXX..  XXXXXXXXXXXXXX..XX..  XXXXXXXXXXXXXXXX....  XXXX....XXXXXXXXXX..  XXXX..XX..XXXXXX..  XXXXXXXXXXXXXX",
"XX..  XXXXXXXXXXXX..XXXX..  XXXXXXXXXXXXXX..XX..  XXXXXXXXXXXXXXXX....  XXXX....XXXXXXXXXX..  XXXX..XX..XXXXXX..  XXXXXXXXXXXXXX",
"....  ....................  ....................  ....................  ....................  ..................  ..............",
"....  ....................  ....................  ....................  ....................  ..................  ..............",
"                                                                                                                                ",
"                                                                                                                                ",
"XXXXXXXXXXXX  XXXXXXXXXXXXXXXXXXXX  XXXXXXXXXXXXXXXXXXXX  XXXXXXXXXXXXXXXXXXXX  XXXXXXXXXXXXXXXXXXXXXX  XXXXXXXXXXXXXXXXXXXX  XX",
"XXXXXXXXXXXX  XXXXXXXXXXXXXXXXXXXX  XXXXXXXXXXXXXXXXXXXX  XXXXXXXXXXXXXXXXXXXX  XXXXXXXXXXXXXXXXXXXXXX  XXXXXXXXXXXXXXXXXXXX  XX",
"XXXXXXXXXX..  XXXXXXXXXXXXXXXXXX..  XXXXXXXXXXXXXXXXXX..  XXXXXXXXXXXXXXXXXX..  XXXXXXXXXXXXXXXXXXXX..  XXXXXXXXXXXX..XXXX..  XX",
"XXXXXXXXXX..  XXXXXXXXXXXXXXXXXX..  XXXXXXXXXXXXXXXXXX..  XXXXXXXXXXXXXXXXXX..  XXXXXXXXXXXXXXXXXXXX..  XXXXXXXXXXXX..XXXX..  XX",
"..XXXXXX....  XXXX....XXXX..XXXX..  XXXXXX..XXXX....XX..  XXXX..XXXXXXXX..XX..  XXXXXX....XXXXXX..XX..  XXXX....XXXXXXXX....  XX",
"..XXXXXX....  XXXX....XXXX..XXXX..  XXXXXX..XXXX....XX..  XXXX..XXXXXXXX..XX..  XXXXXX....XXXXXX..XX..  XXXX....XXXXXXXX....  XX",
"XXXXXX..XX..  XXXXXXXXXXXXXX..XX..  XXXXXXXXXXXXXXXXXX..  XXXXXXXX....XXXXXX..  XXXXXXXXXXXX..XXXXXX..  XXXXXXXXXXXXXXXXXX..  XX",
"XXXXXX..XX..  XXXXXXXXXXXXXX..XX..  XXXXXXXXXXXXXXXXXX..  XXXXXXXX....XXXXXX..  XXXXXXXXXXXX..XXXXXX..  XXXXXXXXXXXXXXXXXX..  XX",
"............  ....................  ....................  ....................  ......................  ....................  ..",
"............  ....................  ....................  ....................  ......................  ....................  ..",
"                                                                                                                                ",
"                                                                                                                                "
};
