/* XPM */
static char *bigger[] = {
/* columns rows colors chars-per-pixel */
"128 128 5 1 ",
"  c #0E3F33",
". c #1AAA86",
"X c #26D5AA",
"o c #DAD1D1",
"O c white",
/* pixels */
"XXXXXXXX....XXXXXX..  XXXXXXXXXXXX..XXXX..  XXXXXXXXXXXXXXXXXX..  XXXXXXXXXXXXXXXXXX..  XXXXXXXXXX....XXXX..  XXXXXX..XXXXXXXXXX",
"XXXXXXXX....XXXXXX..  XXXXXXXXXXXX..XXXX..  XXXXXXXXXXXXXXXXXX..  XXXXXXXXXXXXXXXXXX..  XXXXXXXXXX....XXXX..  XXXXXX..XXXXXXXXXX",
"XXXXXXXXXXXXXXXXXX..  XXXXXXXXXXXXXXXXXX..  XXXXXX..XXXXXXXXXX..  XXXXXXXXXXXX..XXXX..  XXXXXXXXXXXXXXXXXX..  XXXXXXXXXXXXXX..XX",
"XXXXXXXXXXXXXXXXXX..  XXXXXXXXXXXXXXXXXX..  XXXXXX..XXXXXXXXXX..  XXXXXXXXXXXX..XXXX..  XXXXXXXXXXXXXXXXXX..  XXXXXXXXXXXXXX..XX",
"....................  ....................  ....................  ....................  ....................  ..................",
"....................  ....................  ....................  ....................  ....................  ..................",
"                                                                                                                                ",
"                                                                                                                                ",
"XXXXXX  XXXXXXXXXXXXXXXXXXXX  XXXXXXXXXXXXXXXXXXXX  XXXXXXXXXXXXXXXXXXXX  XXXXXXXXXXXXXXXXXXXX  XXXXXXXXXXXXXXXXXXXX  XXXXXXXXXX",
"XXXXXX  XXXXXXXXXXXXXXXXXXXX  XXXXXXXXXXXXXXXXXXXX  XXXXXXXXXXXXXXXXXXXX  XXXXXXXXXXXXXXXXXXXX  XXXXXXXXXXXXXXXXXXXX  XXXXXXXXXX",
"XXXX..  XXXXXX....XXXXXXXX..  XXXXXXXXXXXX....XX..  XXXXXXXXXXXXXXXXXX..  XXXXXXXXXXXX..XXXX..  XXXXXXXXXXXXXXXXXX..  XXXXXXXXXX",
"XXXX..  XXXXXX....XXXXXXXX..  XXXXXXXXXXXX....XX..  XXXXXXXXXXXXXXXXXX..  XXXXXXXXXXXX..XXXX..  XXXXXXXXXXXXXXXXXX..  XXXXXXXXXX",
"XX....  XXXXXXXXXXXX..XXXX..  XXXX..XXXXXXXXXXXX..  XXXXXX....XXXXXXXX..  XXXX..XXXXXXXXXXXX..  XX..XXXXXXXXXXXXXX..  XXXX....XX",
"XX....  XXXXXXXXXXXX..XXXX..  XXXX..XXXXXXXXXXXX..  XXXXXX....XXXXXXXX..  XXXX..XXXXXXXXXXXX..  XX..XXXXXXXXXXXXXX..  XXXX....XX",
"XXXX..  XXXXXXXXXXXXXXXXXX..  XXXXXXXXXXXXXXXXXX..  XXXXXXXXXXXX..XXXX..  XXXXXXXXXXXXXXXXXX..  XXXXXXXXXXXXXXXXXX..  XXXXXXXXXX",
"XXXX..  XXXXXXXXXXXXXXXXXX..  XXXXXXXXXXXXXXXXXX..  XXXXXXXXXXXX..XXXX..  XXXXXXXXXXXXXXXXXX..  XXXXXXXXXXXXXXXXXX..  XXXXXXXXXX",
"......  ....................  ....................  ....................  ....................  ....................  ..........",
"......  ....................  ....................  ....................  ....................  ....................  ..........",
"                                                                                                                                ",
"                                                                                                                                ",
"XXXXXXXXXXXXXX  XXXXXXXXXXXXXXXXXXXX  XXXXXXXXXXXXXXXXOOOOooOOOOOOOOOOOOOOXXXXXX  XXXXXXXXXXXXXXXXXXXX  XXXXXXXXXXXXXXXXXXXX  XX",
"XXXXXXXXXXXXXX  XXXXXXXXXXXXXXXXXXXX  XXXXXXXXXXXXXXXXOOOOooOOOOOOOOOOOOOOXXXXXX  XXXXXXXXXXXXXXXXXXXX  XXXXXXXXXXXXXXXXXXXX  XX",
"XXXXXXXXXXXX..  XXXXXXXXXXXX....XX..  XXXXXXXXOOOOOOOOXX..  XXXXXXXXXXXXXXOOOOooooXXXX....XXXXXXXXXX..  XXXXXXXX..XXXXXXXX..  XX",
"XXXXXXXXXXXX..  XXXXXXXXXXXX....XX..  XXXXXXXXOOOOOOOOXX..  XXXXXXXXXXXXXXOOOOooooXXXX....XXXXXXXXXX..  XXXXXXXX..XXXXXXXX..  XX",
"XXXX....XXXX..  XXXX....XXXXXXXXXX..  XXXXOOOOXXXXXX..XX..  XXXXXXXX....XXXXXX..  OOOOXXXXXXXXXXXXXX..  XXXXXXXXXX....XXXX..  XX",
"XXXX....XXXX..  XXXX....XXXXXXXXXX..  XXXXOOOOXXXXXX..XX..  XXXXXXXX....XXXXXX..  OOOOXXXXXXXXXXXXXX..  XXXXXXXXXX....XXXX..  XX",
"XXXXXXXXXXXX..  XXXXXXXXXXXXXXXXXX..  OOOOXXXXXXXXXXXX....  XX..XXXXXXXXXXXXXX..  XXXXOOOOXX....XXXX..  XXXXXXXXXXXXXXXXXX..  XX",
"XXXXXXXXXXXX..  XXXXXXXXXXXXXXXXXX..  OOOOXXXXXXXXXXXX....  XX..XXXXXXXXXXXXXX..  XXXXOOOOXX....XXXX..  XXXXXXXXXXXXXXXXXX..  XX",
"..............  ..................OOoo....................  ....................  ........oooo........  ....................  ..",
"..............  ..................OOoo....................  ....................  ........oooo........  ....................  ..",
"                                oo                                                            oo                                ",
"                                oo                                                            oo                                ",
"  XXXXXXXXXXXXXXXXXXXX  XXXXXXOOXXXXXXXXXXXX  XXXXXXXXXXXXXXOOOOOO  XXXXXXXXXXXXXXXXXXXX  XXXXXXOOXXXXXXXXXXXX  XXXXXXXXXXXXXXXX",
"  XXXXXXXXXXXXXXXXXXXX  XXXXXXOOXXXXXXXXXXXX  XXXXXXXXXXXXXXOOOOOO  XXXXXXXXXXXXXXXXXXXX  XXXXXXOOXXXXXXXXXXXX  XXXXXXXXXXXXXXXX",
"  XXXXXXXXXX..XXXXXX..  XXXXOOXXXXXX....XX..  XXXXXXXXOOOOOOOOOOooooOOOOOO..XXXXXXXXXX..  XXXX..XXOOXXXXXXXX..  XXXXXXXX..XXXXXX",
"  XXXXXXXXXX..XXXXXX..  XXXXOOXXXXXX....XX..  XXXXXXXXOOOOOOOOOOooooOOOOOO..XXXXXXXXXX..  XXXX..XXOOXXXXXXXX..  XXXXXXXX..XXXXXX",
"  XXXX..XXXXXXXX......  XXOO..XXXXXXXXXXXX..  XXXXXXOOOOooooooooooooooOOOOOOXX....XXXX..  XXXXXXXXXXOO....XX..  XX....XXXXXX..XX",
"  XXXX..XXXXXXXX......  XXOO..XXXXXXXXXXXX..  XXXXXXOOOOooooooooooooooOOOOOOXX....XXXX..  XXXXXXXXXXOO....XX..  XX....XXXXXX..XX",
"  XXXXXXXXXXXXXXXXXX..  OOXXXXXXXXXXXXXXXX..  XXOOOOOOooXXXXXXXX..  XXooOOOOOOXXXXXXXX..  ..XXXX..XXXXOOXXXX..  XXXXXXXXXXXXXXXX",
"  XXXXXXXXXXXXXXXXXX..  OOXXXXXXXXXXXXXXXX..  XXOOOOOOooXXXXXXXX..  XXooOOOOOOXXXXXXXX..  ..XXXX..XXXXOOXXXX..  XXXXXXXXXXXXXXXX",
"  ....................oo....................  oooooooo............  ....oooooooo........  ..............oo....  ................",
"  ....................oo....................  oooooooo............  ....oooooooo........  ..............oo....  ................",
"                      oo                      oooooo                      oooooo                        oo                      ",
"                      oo                      oooooo                      oooooo                        oo                      ",
"XXXXXXXX  XXXXXXXXXXOOXXXXXXXX  XXXXXXXXXXXXOOOOOOoo  XXXXXXXXXXXXXXXXXXXX  ooXXXXXXXXXXXXXXXXXX  XXXXXXXXOOXXXXXXXXXX  XXXXXXXX",
"XXXXXXXX  XXXXXXXXXXOOXXXXXXXX  XXXXXXXXXXXXOOOOOOoo  XXXXXXXXXXXXXXXXXXXX  ooXXXXXXXXXXXXXXXXXX  XXXXXXXXOOXXXXXXXXXX  XXXXXXXX",
"XXXXXX..  XXXX....XXOOXXXXXX..  XXXXXXXX..XXooOOOOoo  XXXXXXXX....XXXXXX..  XXXXXX....XXXXXXXX..  XXXXXXXXOO..XXXXXX..  XXXXXXXX",
"XXXXXX..  XXXX....XXOOXXXXXX..  XXXXXXXX..XXooOOOOoo  XXXXXXXX....XXXXXX..  XXXXXX....XXXXXXXX..  XXXXXXXXOO..XXXXXX..  XXXXXXXX",
"....XX..  XX..XXXXOO..XX..XX..  XXXX....XXXXXXOOOOoo  XXXX..XXXXXXXXXX....  XXXXXXXXXXXX....XX..  XXXXXXXXXXOOXXXXXX..  XXXXXX..",
"....XX..  XX..XXXXOO..XX..XX..  XXXX....XXXXXXOOOOoo  XXXX..XXXXXXXXXX....  XXXXXXXXXXXX....XX..  XXXXXXXXXXOOXXXXXX..  XXXXXX..",
"XXXXXX..  XXXXXXXXOOXXXXXXXX..  XXXXXXXXXXXXXXooOOOOooXXXXXXXXXXXXXXXXXX..  XXXXXXXXXXXXXXXXXX..  XXXX..XXXXOOXX..XX..  XX....XX",
"XXXXXX..  XXXXXXXXOOXXXXXXXX..  XXXXXXXXXXXXXXooOOOOooXXXXXXXXXXXXXXXXXX..  XXXXXXXXXXXXXXXXXX..  XXXX..XXXXOOXX..XX..  XX....XX",
"........  ........OO..........  ................ooOOooOO..................  ....................  ..........oo........  ........",
"........  ........OO..........  ................ooOOooOO..................  ....................  ..........oo........  ........",
"                oo                                oooooooo                                                    oo                ",
"                oo                                oooooooo                                                    oo                ",
"XXXXXXXXXXXXXXXXOOXXXXXXXXXXXXXXXXXXXX  XX..XXXXXXXXooooOOOOooOOOOOOOOXXXXXXXXXX  XXXXXXXXXXXXXXXXXXXXXX  XXXXOOXXXXXXXXXXXXXX  ",
"XXXXXXXXXXXXXXXXOOXXXXXXXXXXXXXXXXXXXX  XX..XXXXXXXXooooOOOOooOOOOOOOOXXXXXXXXXX  XXXXXXXXXXXXXXXXXXXXXX  XXXXOOXXXXXXXXXXXXXX  ",
"XXXXXX....XXXX..OOXX..XXXXXX....XXXXXX  XXXXXXXXXX....XXooooooooOOOOOOOOOOOO....  XXXXXXXX....XXXXXXXX..  XXXXOOXXXXXXXXXXXX..  ",
"XXXXXX....XXXX..OOXX..XXXXXX....XXXXXX  XXXXXXXXXX....XXooooooooOOOOOOOOOOOO....  XXXXXXXX....XXXXXXXX..  XXXXOOXXXXXXXXXXXX..  ",
"..XX..XXXX..XX..OOXXXXXX..XXXXXXXX....  XXXX....XXXXXXXXXXXX  XXooooooooOOOOOOXX  XXXXXXXXXXXXXXXXXXXX..  ..XXOO....XXXX..XX..  ",
"..XX..XXXX..XX..OOXXXXXX..XXXXXXXX....  XXXX....XXXXXXXXXXXX  XXooooooooOOOOOOXX  XXXXXXXXXXXXXXXXXXXX..  ..XXOO....XXXX..XX..  ",
"XXXXXXXXXXXXXX..OOXXXXXXXXXXXXXXXXXXXX  XXXXXXXXXXXXXXXX..XX  XXXXXXXXXXooOOOOoo  XXXX..XXXXXX..XXXXXX..  XXXXOOXXXXXXXXXXXX..  ",
"XXXXXXXXXXXXXX..OOXXXXXXXXXXXXXXXXXXXX  XXXXXXXXXXXXXXXX..XX  XXXXXXXXXXooOOOOoo  XXXX..XXXXXX..XXXXXX..  XXXXOOXXXXXXXXXXXX..  ",
"................OO....................  ....................  ............oooooooo......................  ....oo..............  ",
"................OO....................  ....................  ............oooooooo......................  ....oo..............  ",
"                oo                                                          oooooooooo                        oo                ",
"                oo                                                          oooooooooo                        oo                ",
"XX  XXXXXXXXXXXXOOXXXXXX  XXXXXXXXXXXXXXXXXXXX  XXXXXXXXXXXXXXXXXXXX  XXXXXXXXOOOOOOXXXX  XXXXXXXXXXXXXXXXXXXXOO  XXXXXXXXXXXXXX",
"XX  XXXXXXXXXXXXOOXXXXXX  XXXXXXXXXXXXXXXXXXXX  XXXXXXXXXXXXXXXXXXXX  XXXXXXXXOOOOOOXXXX  XXXXXXXXXXXXXXXXXXXXOO  XXXXXXXXXXXXXX",
"..  XXXXXXXX....OOXXXX..  XXXX....XXXXXXXXXX..  XX..XXXXXXXXXX..XX..  XX..XXXXOOOOOO....  XXXXXXXXXX....XXXXXXOO  XXXXXXXXXX....",
"..  XXXXXXXX....OOXXXX..  XXXX....XXXXXXXXXX..  XX..XXXXXXXXXX..XX..  XX..XXXXOOOOOO....  XXXXXXXXXX....XXXXXXOO  XXXXXXXXXX....",
"..  XXXXXXXXXXXXXXOOXX..  XXXXXXXXXXXX....XX..  XXXXXXXX....XXXXXX..  XXXXXXXXOOOOOOOO..  XXXXXXXXXXXXXXXXXXOO..  XXXX..XXXXXXXX",
"..  XXXXXXXXXXXXXXOOXX..  XXXXXXXXXXXX....XX..  XXXXXXXX....XXXXXX..  XXXXXXXXOOOOOOOO..  XXXXXXXXXXXXXXXXXXOO..  XXXX..XXXXXXXX",
"..  XX....XXXXXXXXOOXX..  XX..XXXXXXXXXXXXXXOO  XXXXXXXXXXXXXXXXXX..  XXXXXXXXOOOOOOOO..  XXXX..XXXXXXXXXXXXOO..  XXXXXXXXXXXXXX",
"..  XX....XXXXXXXXOOXX..  XX..XXXXXXXXXXXXXXOO  XXXXXXXXXXXXXXXXXX..  XXXXXXXXOOOOOOOO..  XXXX..XXXXXXXXXXXXOO..  XXXXXXXXXXXXXX",
"..  ..............oo....  ................OOOOoo....................  ........oooooooo..  ..................oo..  ..............",
"..  ..............oo....  ................OOOOoo....................  ........oooooooo..  ..................oo..  ..............",
"                    oo                    oooooooo                            oooooo                      oo                    ",
"                    oo                    oooooooo                            oooooo                      oo                    ",
"XXXXXXXXXX  XXXXXXXXOOXXXXXXXXXX  XXXXXXXXXXooOOOOOOXX  XXXXXXXXXXXXXXXXXXXXooOOOOooXXXXXXXXXXXX  XXXXXXXXOOXXXXXXXXXXXX  XXXXXX",
"XXXXXXXXXX  XXXXXXXXOOXXXXXXXXXX  XXXXXXXXXXooOOOOOOXX  XXXXXXXXXXXXXXXXXXXXooOOOOooXXXXXXXXXXXX  XXXXXXXXOOXXXXXXXXXXXX  XXXXXX",
"XXXXXX....  XXXX....XXOOXX..XX..  XXXXXXXX..XXooOOOOOO  XXXX..XXXXXXXXXXXXOOooOOooXXXXXX....XX..  XXXXXXOOXXXXXX..XXXX..  XXXXXX",
"XXXXXX....  XXXX....XXOOXX..XX..  XXXXXXXX..XXooOOOOOO  XXXX..XXXXXXXXXXXXOOooOOooXXXXXX....XX..  XXXXXXOOXXXXXX..XXXX..  XXXXXX",
"....XXXX..  XXXXXXXXXXOOXXXXXX..  XX....XXXXXX..ooOOOOooXXXXXXXXXX....XXOOOOooooXX....XXXXXXXX..  XX..XXOO....XXXXXXXX..  XXXXXX",
"....XXXX..  XXXXXXXXXXOOXXXXXX..  XX....XXXXXX..ooOOOOooXXXXXXXXXX....XXOOOOooooXX....XXXXXXXX..  XX..XXOO....XXXXXXXX..  XXXXXX",
"XXXXXXXX..  XXXXXXXXXXXXOOXXXX..  XXXXXXXXXXXXXXXXooOOooOOOOXXXXXXXXOOOOOOOOooXXXXXXXXXXXXXXXX..  XXXXOOXXXXXXXXXXXXXX..  XXXXXX",
"XXXXXXXX..  XXXXXXXXXXXXOOXXXX..  XXXXXXXXXXXXXXXXooOOooOOOOXXXXXXXXOOOOOOOOooXXXXXXXXXXXXXXXX..  XXXXOOXXXXXXXXXXXXXX..  XXXXXX",
"..........  ..............oo....  ..................ooooOOOOOOOOOOOOOOOOOOoo  ..................  ..oo..................  ......",
"..........  ..............oo....  ..................ooooOOOOOOOOOOOOOOOOOOoo  ..................  ..oo..................  ......",
"                            oo                        oooooooooooooooooo                          oo                            ",
"                            oo                        oooooooooooooooooo                          oo                            ",
"XXXXXXXXXXXXXXXXXX  XXXXXXXXXXOOXXXXXXXX  XXXXXXXXXXXXXXXXXXXXooooXXXXXXXXXXXXXXXXXX  XXXXXXXXXXOOXXXXXX  XXXXXXXXXXXXXXXXXXXX  ",
"XXXXXXXXXXXXXXXXXX  XXXXXXXXXXOOXXXXXXXX  XXXXXXXXXXXXXXXXXXXXooooXXXXXXXXXXXXXXXXXX  XXXXXXXXXXOOXXXXXX  XXXXXXXXXXXXXXXXXXXX  ",
"XXXXXXXXXXXXXXXX..  XXXXXX..XXXXOOXXXX..  XXXXXXXXXXXXXXXXXX..  XXXXXXXXXXXXXXXX....  XXXXXXXXOOXXXXXX..  XXXXXXXXXXXXXXXXXX..  ",
"XXXXXXXXXXXXXXXX..  XXXXXX..XXXXOOXXXX..  XXXXXXXXXXXXXXXXXX..  XXXXXXXXXXXXXXXX....  XXXXXXXXOOXXXXXX..  XXXXXXXXXXXXXXXXXX..  ",
"XX....XX..XXXXXX..  XXXXXXXXXXXX..OOOO..  XXXXXXXX..XX....XX..  XXXXXX..XX....XXXX..  XXXXOOOOXXXX..XX..  XXXX....XXXX....XX..  ",
"XX....XX..XXXXXX..  XXXXXXXXXXXX..OOOO..  XXXXXXXX..XX....XX..  XXXXXX..XX....XXXX..  XXXXOOOOXXXX..XX..  XXXX....XXXX....XX..  ",
"XXXXXXXXXXXXXXXX..  XXXXXXXXXXXXXXXXXXooooXXXXXXXXXXXXXXXXXX..  XXXXXXXXXXXXXXXXXX..  OOOOXXXX..XXXXXX..  XXXXXXXX..XXXXXXXX..  ",
"XXXXXXXXXXXXXXXX..  XXXXXXXXXXXXXXXXXXooooXXXXXXXXXXXXXXXXXX..  XXXXXXXXXXXXXXXXXX..  OOOOXXXX..XXXXXX..  XXXXXXXX..XXXXXXXX..  ",
"..................  ....................  oooo................  ..................oooo..................  ....................  ",
"..................  ....................  oooo................  ..................oooo..................  ....................  ",
"                                              oooooooo                    oooooooo                                              ",
"                                              oooooooo                    oooooooo                                              ",
"XXXX  XXXXXXXXXXXXXXXXXXXX  XXXXXXXXXXXXXXXXXXXX  XXXXOOOOOOOOOOOOOOOOOOOOXXXXXXXXXXXXXXXXXX  XXXXXXXXXXXXXXXXXX  XXXXXXXXXXXXXX",
"XXXX  XXXXXXXXXXXXXXXXXXXX  XXXXXXXXXXXXXXXXXXXX  XXXXOOOOOOOOOOOOOOOOOOOOXXXXXXXXXXXXXXXXXX  XXXXXXXXXXXXXXXXXX  XXXXXXXXXXXXXX",
"XX..  XXXXXXXXXXXXXXXXXX..  XXXXXXXXXXXXXXXXXX..  XXXXXXXXXXXXXXXXXX..  XXXXXXXXXXXXXXXXXX..  XXXXXXXXXX....XX..  XXXXXXXXXXXXXX",
"XX..  XXXXXXXXXXXXXXXXXX..  XXXXXXXXXXXXXXXXXX..  XXXXXXXXXXXXXXXXXX..  XXXXXXXXXXXXXXXXXX..  XXXXXXXXXX....XX..  XXXXXXXXXXXXXX",
"XX..  XXXX....XXXXXXXX....  XXXX....XXXX..XXXX..  XXXXXXXXXX....XXXX..  XXXXXXXXXXXX..XXXX..  XXXXXXXXXXXXXXXX..  XX....XXXX..XX",
"XX..  XXXX....XXXXXXXX....  XXXX....XXXX..XXXX..  XXXXXXXXXX....XXXX..  XXXXXXXXXXXX..XXXX..  XXXXXXXXXXXXXXXX..  XX....XXXX..XX",
"XX..  XXXXXXXXXXXX..XXXX..  XXXXXXXXXXXXXX..XX..  XXXXXXXXXXXXXXXX....  XXXX....XXXXXXXXXX..  XXXX..XX..XXXXXX..  XXXXXXXXXXXXXX",
"XX..  XXXXXXXXXXXX..XXXX..  XXXXXXXXXXXXXX..XX..  XXXXXXXXXXXXXXXX....  XXXX....XXXXXXXXXX..  XXXX..XX..XXXXXX..  XXXXXXXXXXXXXX",
"....  ....................  ....................  ....................  ....................  ..................  ..............",
"....  ....................  ....................  ....................  ....................  ..................  ..............",
"                                                                                                                                ",
"                                                                                                                                ",
"XXXXXXXXXXXX  XXXXXXXXXXXXXXXXXXXX  XXXXXXXXXXXXXXXXXXXX  XXXXXXXXXXXXXXXXXXXX  XXXXXXXXXXXXXXXXXXXXXX  XXXXXXXXXXXXXXXXXXXX  XX",
"XXXXXXXXXXXX  XXXXXXXXXXXXXXXXXXXX  XXXXXXXXXXXXXXXXXXXX  XXXXXXXXXXXXXXXXXXXX  XXXXXXXXXXXXXXXXXXXXXX  XXXXXXXXXXXXXXXXXXXX  XX",
"XXXXXXXXXX..  XXXXXXXXXXXXXXXXXX..  XXXXXXXXXXXXXXXXXX..  XXXXXXXXXXXXXXXXXX..  XXXXXXXXXXXXXXXXXXXX..  XXXXXXXXXXXX..XXXX..  XX",
"XXXXXXXXXX..  XXXXXXXXXXXXXXXXXX..  XXXXXXXXXXXXXXXXXX..  XXXXXXXXXXXXXXXXXX..  XXXXXXXXXXXXXXXXXXXX..  XXXXXXXXXXXX..XXXX..  XX",
"..XXXXXX....  XXXX....XXXX..XXXX..  XXXXXX..XXXX....XX..  XXXX..XXXXXXXX..XX..  XXXXXX....XXXXXX..XX..  XXXX....XXXXXXXX....  XX",
"..XXXXXX....  XXXX....XXXX..XXXX..  XXXXXX..XXXX....XX..  XXXX..XXXXXXXX..XX..  XXXXXX....XXXXXX..XX..  XXXX....XXXXXXXX....  XX",
"XXXXXX..XX..  XXXXXXXXXXXXXX..XX..  XXXXXXXXXXXXXXXXXX..  XXXXXXXX....XXXXXX..  XXXXXXXXXXXX..XXXXXX..  XXXXXXXXXXXXXXXXXX..  XX",
"XXXXXX..XX..  XXXXXXXXXXXXXX..XX..  XXXXXXXXXXXXXXXXXX..  XXXXXXXX....XXXXXX..  XXXXXXXXXXXX..XXXXXX..  XXXXXXXXXXXXXXXXXX..  XX",
"............  ....................  ....................  ....................  ......................  ....................  ..",
"............  ....................  ....................  ....................  ......................  ....................  ..",
"                                                                                                                                ",
"                                                                                                                                "
};
