/* XPM */
static char *wall_2_32[] = {
/* columns rows colors chars-per-pixel */
"32 32 138 2 ",
"   c #040404",
".  c #050505",
"X  c #060606",
"o  c #070707",
"O  c #080808",
"+  c #090909",
"@  c #0A0A0A",
"#  c #0B0B0B",
"$  c #0C0C0C",
"%  c #0D0D0D",
"&  c #0E0E0E",
"*  c #0F0F0F",
"=  c #101010",
"-  c #111111",
";  c #121212",
":  c #131313",
">  c #141414",
",  c #151515",
"<  c #161616",
"1  c #171717",
"2  c #181818",
"3  c #191919",
"4  c #1A1A1A",
"5  c #1B1B1B",
"6  c #1C1C1C",
"7  c #1D1D1D",
"8  c #1E1E1E",
"9  c #1F1F1F",
"0  c #202020",
"q  c #212121",
"w  c #222222",
"e  c #232323",
"r  c #242424",
"t  c #252525",
"y  c #262626",
"u  c #272727",
"i  c #282828",
"p  c #292929",
"a  c #2A2A2A",
"s  c #2B2B2B",
"d  c #2C2C2C",
"f  c #2D2D2D",
"g  c #2E2E2E",
"h  c #2F2F2F",
"j  c #303030",
"k  c #313131",
"l  c #323232",
"z  c #333333",
"x  c #343434",
"c  c #353535",
"v  c #363636",
"b  c #373737",
"n  c #383838",
"m  c #393939",
"M  c #3A3A3A",
"N  c #3B3B3B",
"B  c #3C3C3C",
"V  c #3D3D3D",
"C  c #3E3E3E",
"Z  c #3F3F3F",
"A  c #404040",
"S  c #414141",
"D  c #424242",
"F  c #434343",
"G  c #444444",
"H  c #454545",
"J  c #464646",
"K  c gray28",
"L  c #484848",
"P  c #494949",
"I  c #4A4A4A",
"U  c #4B4B4B",
"Y  c #4C4C4C",
"T  c #4D4D4D",
"R  c #4E4E4E",
"E  c #4F4F4F",
"W  c #505050",
"Q  c #515151",
"!  c #525252",
"~  c #535353",
"^  c #545454",
"/  c #555555",
"(  c #565656",
")  c #575757",
"_  c #585858",
"`  c #595959",
"'  c #5A5A5A",
"]  c #5B5B5B",
"[  c #5C5C5C",
"{  c #5D5D5D",
"}  c #5E5E5E",
"|  c #5F5F5F",
" . c #606060",
".. c #616161",
"X. c #626262",
"o. c #636363",
"O. c #646464",
"+. c #656565",
"@. c #666666",
"#. c #676767",
"$. c #686868",
"%. c #696969",
"&. c #6A6A6A",
"*. c #6B6B6B",
"=. c #6C6C6C",
"-. c #6D6D6D",
";. c #6E6E6E",
":. c #6F6F6F",
">. c #707070",
",. c #717171",
"<. c #727272",
"1. c #737373",
"2. c #747474",
"3. c #757575",
"4. c #767676",
"5. c #777777",
"6. c #787878",
"7. c #797979",
"8. c #7B7B7B",
"9. c #7C7C7C",
"0. c #7D7D7D",
"q. c #7F7F7F",
"w. c #818181",
"e. c #828282",
"r. c #838383",
"t. c #848484",
"y. c #878787",
"u. c #898989",
"i. c #8C8C8C",
"p. c #909090",
"a. c #919191",
"s. c #929292",
"d. c #949494",
"f. c #969696",
"g. c #A0A0A0",
"h. c #A3A3A3",
"j. c #ABABAB",
"k. c #B4B4B4",
/* pixels */
"f F j M j u Q K M U u f C Q Q / Y Q c F U U C Y ,.U Q Q C Y U K ",
"c _ C U #.K _ F U F K c f w w K c u c C F U K K s c U f f M F f ",
"Y | ,./ K K j s w f u U Q ,.C j j j f s f C j c U X.u.%.#.F f ,.",
"C _ ,.w.Y j j U U u._ :.| X.Q _ _ U c c | _ Y #.Y #.w./ Y F Q Y ",
"K F j U u s w f w u w Q c j s U _ u j K | s K j j | _ c / f j w ",
"Q Q / U K K Y U U X./ X.:.:.| c U U :.F Y | %.5.%.| X.:.,._ / / ",
"C | F U / 5.c M U | Y U _ _ :.Y _ / Y Q %.#.5.| #.K K _ Q Q Y | ",
"k.0.%.5.K _ / / F U F c w.f M j j Q w U U C Q / Q F 8.X.X.U K h.",
"#.%.w.#.Q 8.w.y.#.w.Q / d.X.K M Y 5.%.w.U ,.#.K #.X.,.%.8.:.:.%.",
"Q / Q _ Q | #.X._ U Q j j C _ j M c M U w u f j Y U U M c F 5.0.",
"C K Y | Y K C 8.| X._ / 5.#.5.%._ ,.X.X._ C Q 5.8.w.w.K U %.| | ",
"6 u Y _ w w f / M K c C %.U F M M _ Q Q / U #.8.5.,.X./ #._ _ U ",
"%.U Y C K | U F K C _ s w s | U 6 j c | d.d.h.j.Q U Y | %./ K U ",
"K / | :._ 8.X.U Q U / K M K / Q K Q | %.,.#.X.0.| U c F Y Y j c ",
"u w s C | c 6 5 j ; 6 1 5 u 5 6 u j M c c s s j u s f M C K F M ",
"_ F M M U 5./ Y | Q Q :./ X.| Q _ %./ %.U C | C M | C C F U / K ",
"f u w u C Q M c C F | _ C C j F C U C U Y s u f j s u w u F #.C ",
"j s C U X.d.,.0.M Y / U Y j c C C 0.U K U X.| Q U Y j K K M c Y ",
"| F w C X.X._ X.F j s M | f c C M Y M Q _ :.5.X./ %.U F U _ / M ",
"w C C c d.| j j j c f ,.,.y.0.w.5 5 s s C %.w.y./ K s f c f Q c ",
"F C U X.U #.X.%.Q K #.#.:./ c c j 1 c K Q j c X.F F M / Y #./ Y ",
"5 w s C s Y K C M 5 M Q _ U s u c c Y Y C Y Q X.s c c C c K s c ",
"K f F j M Q c j f U X.j s M c / Q | :.,.8.i.p.0.8.%.; 6 u w u F ",
"M U j M F Y U M K c C s C s u M / X.| :.| U Y _ _ #.U Q F c / | ",
"5 1 s K f c K K Q 6 u w f Q u u ; c u 5 5 u f j u s w F F C j M ",
"6 u U c f F U U #.K C U X.M C M Q 5.U u Y Q 8.F M U c Y U u F M ",
"1 6 C w s c j c C f u u @ . ; 1 1 M s 1 w j j 5 5 c c w f 1 w u ",
"1 s U U M K s 5 1 ; @ u c f 6 6 1 * * * 5 5 ; @ 1 1 6 1 * @ @ @ ",
"@ @ ; w f U c f ; 1 5 j 1 1 ; 1 . j 1 6 5 w 5 ; 5 1 6 u 6 6 ; . ",
"* ; * s 6 5 ; 1 * ; 6 s ; * * 1 5 f * 1 ; * @ @ @ @ * @ 5 w 5 u ",
"* ; u s s u 6 6 ; 1 5 5 1 * * w 1 * @ ; @ @ @ . @ * @ ; ; 5 . . ",
"; 1 ; u 6 1 ; 1 ; ; 5 w 1 ; * u w 6 * ; * * * . @ @ * * 5 u 1 u "
};
