/* XPM */
static char *wall_1_32[] = {
/* columns rows colors chars-per-pixel */
"32 32 49 1 ",
"  c #142749",
". c #1A2D4D",
"X c #17304A",
"o c #1C344D",
"O c #1E3B4D",
"+ c #1E3550",
"@ c #1F3B51",
"# c #20374E",
"$ c #213D4E",
"% c #203651",
"& c #223D52",
"* c #1F414D",
"= c #24434F",
"- c #2A454F",
"; c #27494F",
": c #2A4B4F",
"> c #2C524F",
", c #254352",
"< c #294553",
"1 c #274851",
"2 c #2B4B53",
"3 c #274558",
"4 c #2A455A",
"5 c #2D4B59",
"6 c #314655",
"7 c #314C55",
"8 c #324C5A",
"9 c #394D5D",
"0 c #2E5152",
"q c #2F5259",
"w c #325354",
"e c #385453",
"r c #335954",
"t c #385A54",
"y c #345259",
"u c #3B545B",
"i c #375A59",
"p c #3B5C5A",
"a c #364E60",
"s c #345360",
"d c #3A5462",
"f c #3C5C61",
"g c #41575B",
"h c #425E5D",
"j c #44655B",
"k c #455766",
"l c #42576B",
"z c #516669",
"x c #67767D",
/* pixels */
"OO&&,&+&&$,@%,d,0;;#o*3OX@OX+X..",
"O%,&4&&&$$OX,%,oX:-=OOo&.,@@&,o,",
"$443@,3322<%32=-O<2$,,@&&@oO&3&&",
"=,$2,,s3=<$,oo$==#o=O,X,,@@@o3,+",
",,O,@oOOo=$,,=,@=#,,oOO@,@@O,X,,",
",,OO=&1@=$w=,$,,<:&&8,&o=:**oo@&",
",3,,==;O,=;3&5OO%,2<3%,@X1,O@X3<",
"o4,@o,$;2<$$O=2,+.-222,,,,@+&&2;",
"w==;1*20@,02$22::2ww;0==2,=$:$&=",
";$=-*1*@1,1@2<,32w=O=22O:q;=:;4,",
"-:=<010O1:,2;:,1:;0222,i*,>OO5<o",
";=OO0o,,O=10:231:o22;0$2:2;$572=",
">>;=2,0;,2,25r==t2=2r0O=$-#<.,wo",
"p2,,;=w0==5*&1&,w=:O==2o$:w; %2%",
"@20o%OoXO1=11,,O0222<02<O3&<Oo26",
";,&,=2202$yq01;1r=2;r2;>=<587,&2",
"*;,,220q2,&=222=O,w=2=O=:12%+5&+",
"12&,2311,,2o>;,w02e0=6<O1:0OO12,",
",;w1:,,3w*ww20p0&77-22=72,,5w2=,",
"=301021251<220:we<22w:3,0wu525,,",
"$03=2=,53d2rw&52f02<5;w0:;wy$53.",
"002:3*,3w3:rt2wwiww5777$22=02=46",
",0>;215s<w52e2w><w<wy:5=<&=$O$<&",
"25,w225%<2wugh=;<<y<27:>w#-,2<7<",
",22yi2:00y:wh675w=<7w7822w2u26u6",
"72<03:002,22jw<2;222<g<x967u77;6",
"0w23,1r222-72w25<e<2,w:7-2,7<9<,",
"=:=05<25;w6>>w6<y97yw22<<5=8663<",
"--3-5<y5$#<7eg<7du72227gyw7<&-<<",
"=<<55lk&&26uuy6u27<<7<7u<&<<g<87",
"2:;=w3883<y6y7<22=w&<787ee229&<.",
"=222y554<&2z72wu26<3<2eu-796977$"
};
