/* XPM */
static char *wall_3_32[] = {
/* columns rows colors chars-per-pixel */
"32 32 189 2 ",
"   c #252525",
".  c #272727",
"X  c #292929",
"o  c #2C2C2C",
"O  c #303030",
"+  c #313131",
"@  c #323232",
"#  c #343434",
"$  c #373737",
"%  c #383838",
"&  c #3B3B3B",
"*  c #3C3C3C",
"=  c #3D3D3D",
"-  c #3E3E3E",
";  c #3F3F3F",
":  c #404040",
">  c #424242",
",  c #434343",
"<  c #444444",
"1  c #454545",
"2  c #464646",
"3  c #474747",
"4  c #484848",
"5  c #494949",
"6  c #4B4B4B",
"7  c #4C4C4C",
"8  c #4D4D4D",
"9  c #4E4E4E",
"0  c #4F4F4F",
"q  c #505050",
"w  c #515151",
"e  c #525252",
"r  c #535353",
"t  c #545454",
"y  c #555555",
"u  c #565656",
"i  c #575757",
"p  c #585858",
"a  c #595959",
"s  c #5A5A5A",
"d  c #5B5B5B",
"f  c #5C5C5C",
"g  c #5D5D5D",
"h  c #5E5E5E",
"j  c #5F5F5F",
"k  c #606060",
"l  c #616161",
"z  c #626262",
"x  c #636363",
"c  c #646464",
"v  c #656565",
"b  c #666666",
"n  c #676767",
"m  c #686868",
"M  c #696969",
"N  c #6A6A6A",
"B  c #6B6B6B",
"V  c #6C6C6C",
"C  c #6D6D6D",
"Z  c gray43",
"A  c #6F6F6F",
"S  c #707070",
"D  c #717171",
"F  c #727272",
"G  c #737373",
"H  c #747474",
"J  c #757575",
"K  c #767676",
"L  c #777777",
"P  c #787878",
"I  c #797979",
"U  c #7A7A7A",
"Y  c #7B7B7B",
"T  c #7C7C7C",
"R  c #7D7D7D",
"E  c #7E7E7E",
"W  c #7F7F7F",
"Q  c #808080",
"!  c #818181",
"~  c #828282",
"^  c #838383",
"/  c #848484",
"(  c #858585",
")  c #868686",
"_  c #878787",
"`  c #888888",
"'  c #898989",
"]  c #8A8A8A",
"[  c #8B8B8B",
"{  c #8C8C8C",
"}  c #8D8D8D",
"|  c #8E8E8E",
" . c #8F8F8F",
".. c #909090",
"X. c #919191",
"o. c #929292",
"O. c #939393",
"+. c #949494",
"@. c #959595",
"#. c #969696",
"$. c #979797",
"%. c #989898",
"&. c #999999",
"*. c #9A9A9A",
"=. c #9B9B9B",
"-. c #9C9C9C",
";. c #9D9D9D",
":. c #9E9E9E",
">. c #9F9F9F",
",. c #A0A0A0",
"<. c #A1A1A1",
"1. c #A2A2A2",
"2. c #A3A3A3",
"3. c #A4A4A4",
"4. c #A5A5A5",
"5. c #A6A6A6",
"6. c #A7A7A7",
"7. c #A8A8A8",
"8. c #A9A9A9",
"9. c #AAAAAA",
"0. c #ABABAB",
"q. c #ACACAC",
"w. c #ADADAD",
"e. c #AEAEAE",
"r. c #AFAFAF",
"t. c #B0B0B0",
"y. c #B1B1B1",
"u. c #B2B2B2",
"i. c #B3B3B3",
"p. c #B4B4B4",
"a. c #B5B5B5",
"s. c #B6B6B6",
"d. c #B7B7B7",
"f. c #B8B8B8",
"g. c #B9B9B9",
"h. c #BABABA",
"j. c #BBBBBB",
"k. c #BCBCBC",
"l. c #BDBDBD",
"z. c #BEBEBE",
"x. c #BFBFBF",
"c. c #C0C0C0",
"v. c #C1C1C1",
"b. c #C2C2C2",
"n. c #C3C3C3",
"m. c #C4C4C4",
"M. c #C5C5C5",
"N. c #C6C6C6",
"B. c #C7C7C7",
"V. c #C8C8C8",
"C. c #C9C9C9",
"Z. c #CACACA",
"A. c #CBCBCB",
"S. c #CCCCCC",
"D. c #CDCDCD",
"F. c #CECECE",
"G. c #CFCFCF",
"H. c #D0D0D0",
"J. c #D1D1D1",
"K. c #D2D2D2",
"L. c #D3D3D3",
"P. c #D4D4D4",
"I. c #D5D5D5",
"U. c #D6D6D6",
"Y. c #D7D7D7",
"T. c #D8D8D8",
"R. c #D9D9D9",
"E. c #DADADA",
"W. c gray86",
"Q. c #DCDCDC",
"!. c #DDDDDD",
"~. c #DEDEDE",
"^. c #DFDFDF",
"/. c #E0E0E0",
"(. c #E1E1E1",
"). c #E2E2E2",
"_. c #E3E3E3",
"`. c #E4E4E4",
"'. c #E5E5E5",
"]. c #E6E6E6",
"[. c #E7E7E7",
"{. c #E8E8E8",
"}. c #E9E9E9",
"|. c #EAEAEA",
" X c #EBEBEB",
".X c #ECECEC",
"XX c #EDEDED",
"oX c #EEEEEE",
"OX c #EFEFEF",
/* pixels */
"@.-.5.Q ] o.i &.,.&.) o.] 6 { &.&.-.5.5.R ) 8.r.j.,.{ ) H y.j.r.",
"{.~.OXOXOX[.o.{.OX{.R.{.OX] {.OXOXOX{.OXa.j.OX[.{.[.{.[.,.OX{.OX",
"z.-.@.o.&.8.k -.o.] @.8.z.Q ,.y.r.8.8.n.5.&.L.N.n.C.N.N.&.~.{.R.",
"n.a.A n.j.S.j.S.L.Y N.a.a.a.5.y.Q y.C.C.N.n.n.j.v j.y.j.,.8.5.H ",
"OX[.] OX{.{.OX~.OX@.{.L.P.S.S._.o.C.OX~.OXOXOX{.Y [.OXOX{.{.OXQ ",
"D ] s &.o.&.H D v & i 0 w 2 v @.k w H B D R R o.0 R o.Q ,.@.y.B ",
"S.~._.R._.P.k -.y.~._.C._.A ~.P.~._.{.{.o.j.{.{.P.C.C.a.R _.P.~.",
"{.{.y.[.{.P.s o.y.R.R.n.R.0 P.P.{.S.[.OX) H a.y.C.a.C.L.A {.OX[.",
") H i o.@.R k h B 0 k h H H ] ) Q s ] 8.,.D R ) k &.o.] D @.@.Y ",
"~.{.) ~.C.{.{.{.{.-.n.S.OX{.OX[.OXH [.[.OXOX[._.v ~._.OX~.n.OX8.",
"S.R.D a.n.N.5.C.R.{ ] N.L.z.z.n.R.A S.P.L.S.L.P.Q j.N.~.~.N.z.y.",
"-.5.,.,.o.o.k { &.) &.Q ) > -.5.5.] o.) w { z.a.&.5.&.Q k ,.{ 5.",
"OX{.{.OX{.{.H [.OX{._._.~.H S.y.~.L.N.{.) S.[._.z.{.OXR.) P.R._.",
"@.,.o.] @.o.h { Q @.,.r.r.D ,.-.{ o.&.@.D R 8.y.] r.z.r.A z.j.r.",
"L.n.h a.N.N.S.S.8.o.&.z.S.N.S.S.a.s j.n.N.z.n.j.R a.N.z.S.C.N.o.",
"{.[.) [.~._.~.R.N.j.5._.P.~.~.[.[.B N.N.C.~._._.o.~.{.~.{.OX{.n.",
"&.,.Q &.) ] ) ] 5.o.] o.D A R { ) D Y ] A &.5.r.) r.o.-.o.r.5.r.",
"{.{.OX~._.n.o.~._._._._._.Q _.R.P.S.~.[.] L._.[.{.L.{.j.-.{.{.R.",
"~.~.L.S._.8.@.~.R.~.S.R._.R ~.S.P.S.~.R.Y S.~.~._.S.~.R.r._.{.P.",
"5.{ w v 5.{ { ,.@.i ) ] o.D H A 0 v D ] B D v A > ) o.) v A D 6 ",
"n._.k r.[.{.S.{.{.] {._.R.OXn._.a.a.[.S.S.P.[.~.Q R._.S.R.S.[.) ",
",.,.w ) ,.@.{ 8.a.h ] -.,.5.,.j.R R 8.5.@.5.N.N.D y.y.r.y.z.P.R ",
"N.N.N.z.a.Y R ,.j.r.&.5.,.k y.@.,.,.-.-.0 Q o.,.r.,.8.) v -.,.r.",
"OX[.L.y.C.5.&.z.N.C.@.r.n.D S.n.8.j.j.z.v n.n.~.~.{.[.C.&.S.R._.",
"{ D s R { D h Q B H B h B - w - > > 6 i $ v k B ) ,.a.5.h ] R R ",
"S.a.A { N.Q Q ] ) 6 R ) @.@.o.{ v B 8.R D R 5.y.w { { 5.{ R H i ",
"8.8.i k ) h k ) Y - { Q ] ] ] ) Y k ,.R Q ] 8.-.2 A R ) Q D ) 2 ",
"Q @.{ B H A 6 k k - 0 0 w O 6 i B s B s 6 2 k w & - 2 2 2 k Y Q ",
"-.z.{ j.,.{ O k v v k 0 k 0 r.8.r.-.r.,.) i H i k k 0 0 h R { Y ",
"k B H R H H i D 6 2 i i v s o.5.@.h ] ) v - i 2 i v v w Y v H i ",
"A v 6 s v w B h h X 6 k s k A h i & > 0 - > 0 - - s ) Y 6 w 6   ",
"a.@.k &.) A o.A H 6 R v ] Y -.@.) B B - - - $ 0 . o $ - o o 6 O "
};
