/* XPM */
static char *wall_0_128[] = {
/* columns rows colors chars-per-pixel */
"128 128 64 1 ",
"  c #000000",
". c #050505",
"X c #0B0B0B",
"o c #0E0E0E",
"O c #101010",
"+ c #161616",
"@ c #181818",
"# c #1E1E1E",
"$ c #232323",
"% c #272727",
"& c #2A2A2A",
"* c #2C2C2C",
"= c #303030",
"- c #343434",
"; c #3A3A3A",
": c #3F3F3F",
"> c #434343",
", c #464646",
"< c #484848",
"1 c #4E4E4E",
"2 c #525252",
"3 c #575757",
"4 c #5B5B5B",
"5 c #5C5C5C",
"6 c #636363",
"7 c #676767",
"8 c #6A6A6A",
"9 c #6D6D6D",
"0 c #737373",
"q c #777777",
"w c #787878",
"e c #7D7D7D",
"r c #828282",
"t c #868686",
"y c #8B8B8B",
"u c #8F8F8F",
"i c #939393",
"p c #949494",
"a c #989898",
"s c #9C9C9C",
"d c #A1A1A1",
"f c #A4A4A4",
"g c #A8A8A8",
"h c #AFAFAF",
"j c #B3B3B3",
"k c #B7B7B7",
"l c #B8B8B8",
"z c #BFBFBF",
"x c #C0C0C0",
"c c #C5C5C5",
"v c #CBCBCB",
"b c gray81",
"n c #D0D0D0",
"m c #D7D7D7",
"M c #D9D9D9",
"N c #DEDEDE",
"B c #E1E1E1",
"V c #E5E5E5",
"C c #E8E8E8",
"Z c #EDEDED",
"A c #F3F3F3",
"S c #F5F5F5",
"D c #FBFBFB",
"F c #FEFEFE",
/* pixels */
"zaurrretyrrbpuupaauutedtw9rwr8wrhydjb9w0wwfsq0yur00tpp=+@$&16yrNdjdfhlklj6qqteyw064>kqrupiisy8du1997ws7&v679e8jdps=36e69870yuq08",
"viuereerterbsapuyujhdpnit0ww8854zraudi0q89vp9q29w4>3zl<>51;4wuwMypupaaipp76780w0803:biuuwadpgslrrarwti63b2328275>3<;<,2217w154,;",
"citqreertwfbjdypiskksdxseq7e9w99N099reew88p8wq80wy7qkw8q85eiuukBryrrttrir81<39906<23vaiupiuapilyutur2234r50q8<,2,qr;4:3:634>77re",
"giyqe0qerrkcahddjhhhtuci5,24992eM585980991ueretrq88ea6yffassapqVqutewqerwe668q071-%<ntyyprttryk85,3&<3<7#6h553<wa8e>2494363,02ue",
"3>0qw1&19723y77653<310dty053>&&fmah33e-048rr7023642w2>$:<>&&#Oo35q772608<44$&&=%#+*$5#157741:333&    oX&:@@%=449pf69ew53>,,=:>1#",
"nzpuueyrqe9jmjpcgsgfffhk0tfjfxnnl<%6xlieshnfs7;15$+$<::6<=O=2eqpu6e999spdxu0iq24<30qq0567772wsaiqi08wagcz>**26sagaiysu860fu77are",
"sq08334w:*>,8%%j<4,55324311,,50033;17iut63>>*+;*&<%:+%-2#4l0rrrt07uwertpuuirapCtautrqqpeipw98t507557triyr7e99rytaghfpatu6w>@o;=O",
"34760uiuutqey4=V71$--==,=&%=&*,4*:o=wvir08ry069484243>;qt<2qereyyytrryqryweyytxaipiiutqeer7647qe8w7hueyertteereqgkyrrrry8>12:&#&",
"6q8e8rip0rwar5:Zw5:>>==-*#-,$$-3*%+*eVu8638rqr055736=&%%-&747ry09908w090eeweqyluuipdiiqerw565984675d5qerreqeyiqyjprt0r0uyy03>*@%",
"57qqyyr6essxy34Br2:63:=$=-=%&-<w,-=1iBa<%:,&;<=1;2*,1;<3,%aihwere8990q0tryutuegitpeu0wwwe4266r5673wl8wrwrwetwrweqrqqet0iy,u=#.o&",
"o1-OX#O+>541;%;i%*<*%%%O##;;-##*-&#O7bd62$%:;*&*-&-&:1w21+y7e,24<32>,74538yj7-ye45<>@+@#,18771,189tp<1q9ewe8490ifswiy079-%1;# .*",
"qffdya034ykzzxncvsq36etuwtee05$o>67unldu0-=:&X#3ife-o&48>19p,,=%>1<1667<%>txyqqu9531>:&-%OO3w70e07dMg31<3-++<54:%;->-50tq9eq414x",
"<;4;=&-+@alckdidsauaiy<25,6;=%6ka66qyw8ygzy7>3950788t488756q8w87p7q976,1>>ruy7taafe5,;,5:-:4705qiy0q38jmr0$$<ru>092ow9;->-%:+,11",
"#$=%$%%.%sfdapiuyeerdh3:33<-,e;pe7eewtrygzS4326677w<pqytipyrwr0c266t3q9:*5yiwiypryew<&*:$$%%+7q$&:wr%*;q6j&*%*=,s>%@3@%$%;#$#9e,",
"++-&%$@o+aufauttteerll12,;,;::*w6erwretufjC46926qe01q0y8tttpau9b1<57331,;6dtrtni9uw8$-10y+@O=:2$$>ew-@#:4d--:@-%,59%%X@%&+o%O,$>",
"$X$*oO@#Oawsyrerteerjz=-7&0fu1%9u0qwwqsasgS9tw060943frqwwutrw9rb5<=&#,>-tdgttgasatyi1;%$=+@@;>5%;<4w7##=3g-:&&--4ay8%*%%,-%# #+o",
"o .Xo.@&101qq0386w007t+&,>:>6;,kftiatqtrrjB>>9:#-*=*ju5734659,qV1%wy&&*%6w4=%*;,61<6696au93-52s2=09gu:-9eb8-1e67mk,2o%;<2>=$Oo#&",
"1:::-%,>1q24rt;38fawgf-oX..*:%:i80ea9&;5fdp431<1&*=3vu-+Oqly95:=->;*OOo#<r--=O-@XXO.>0yq;4>e8>,@@*43=;.:,it690,#$>up=o#+2:2:#@;d",
"+#>=<2641=-%%*41sly7fchp-=;38;$=110eyr857w56775619680070ids9q6634445583828665ehpzytreapapdpupuaf7wal897ehperq86wewyytutth63<&;s4",
"#+=*,44>->&:7r%;3426<45039<,=>;#;8;4b9>414<,&=;<=-5009,6fpfp9661<1221<<>;>,4567qk0q080wwwew8qqq090et7;;,9rww04=,16357675q5 o.+&@",
"-;#%;y4=&$$+=@O68060r87qgddt73,::<,4ve121,<1%@=1=:445r2rcNgyqw744221,,13-=15365:sq80qwwqqqq0068908rq1=<19ttt8==;,33444466-$+O=>:",
"$---=43:94:%$+,r65e9eqahzlkw21<,3q8<d7<<1<<::$*&->#140,ahb9udirr6864324563433415p7789wwqqq80076675q,,4typ779&#+$:47739853,&&#:->",
"::3;8hxh6:=$;$;=#**;:<12<<,45=$:321=i#>>>>1=+$O%=, *=r<2we--ww04>::;:,,36641,1&&#80q989907798867780*-><9arwy53qsi2221<69:q,6;**1",
"0334egae095:27;:=<yere8egy1*o .  ..@;1:&o.o@=:>,;,;o%=-;7234%2-=2>,*OO$O+.OooX$:1&&*O>=@%-%@$=%=,0saw9369<;0t708890972,88>3>;435",
"xwrefieywzwgddpsjvy7dzxsgjd00e*@#$@,7p39zbvCCCMbvmg3-<,5593wf5rzDnbhlmcSny0u035wrwsh$48rnstudarljzcBSNxsxvMzxbmNCCbVMMMMnACxxnnM",
"cwwtyrrwwm0dtr99tfr9p278855951=1@OO++&=1ibnASMpfhgk7=OoX%=#=14M8CirxferwZZ7$%$yut>13$2496<<=;19aiuupp985xzcljhbNllMxfjcBNvmltfad",
"z3qeeeqwrd8stpsdllgig33<532645>1@$=5q200tvifvmfpuip<1%@*%@$=<8V0u575e<*ulz;$;-5qyd2,O;,<%>;>=-;sdyiipsr9nflkzhvituBNxmZZMmnbuuty",
"j0wwre077dk68rytisrpf73,<942543,#X+;=s8#3ksulkawpp9e2><,8,:<11V45utwee8-17%9-:>403=>X::,1151:,&pfiadafatkttuduiwicmNnbVCBNMctyic",
",<1,1:;-<2w260eyqq8ea66-<32>4132%>*<$1i19p6114431:13,::,<4:,>>g=,7467994<4:@;%%-:;=* *223<1q5etffuahahiuret0asuyyzCNbMCDAVVxwxBM",
"cNzhjzcbMBbkcgjjnbhkkgddaiisyslkkjkjfiupdzablcvbvvvCABNmNnNMvVmbmMNNMMmbcmsuu6-=&#:*dwq>w798yaf61&<262>5ky>:,>:;;219ypsgf0yuerkh",
"gzccjkcbmccvxccfphfggcMNcxxnMbccvxNAzgdjgjkcvlvxzbgkcvnDncBvlkzNvkffie9jd0hNhuc9ip54wu0w,=;,9wr22>17pklbxsijlvmlbMnbhqy7,eubZANl",
"tpjchlsjklgjgpdkklxfjnbvkhlgzurthhslfbe0diretyuywcgdxxMnckuq0rrjvzjfatwarqxVClmw<9,qjtqq0e9dd8y073rpsiypdsdgffeew09rput05dcxmCnt",
"sxzjdfpfdfuqpahjgsNMBZMNnbmmlyrwfdfnjmw34959tgf76huwtgbmlxi6wqrlblkupjgg78jmBdc23y1$;4t869804580w9ejjiesffpqtsw69werruyrihBzmSDA",
"jBmshgzvvVbfhfzzklxmvxkzvnckjhpslnVZgsy<esy90hzjfzd89ikxd22;:>:eajcgvvldpiNMMsNy-*;=<5578er00tyiiudvke4qtur50i08ytyruiu0zvNnCCDD",
"tssldcxcvbbklgjzdcdatupasskxzzkxNnbcu5hsfw5ufuer9ir66<tky3t=&;-69yxMNCBZSCZFDklb05<2196w0eewq9ttrraMgarriairyweq0qwwtyy9nSFVmBBD",
"jdfggdiyt06,50ete662=>%;-=<>>>;%=2<<ij55;>,:-:6558>&X. ++6q2#=@%*:<re0qqeq9wq6w65>;=:*=**160<<5d086y2,:23<:;>3518990eye6MlccmCBb",
"fFDZSZZCNzxgy8yetuu3;:;*=<2469wgsiupccfjxjvdifhcda41<:3w0lbfatqtafjlzbxzhhzcbMNnbsu:>apdjxhfsguvctzbmBNnjyipy1phhkfvaiixSNVNNMnl",
"xbvznBMkNAc940w882<$9:&@*Oo+O#0@;-**120eb007598w9w3j2rklja04tyttturuuuuyfpsat9ei90wdqssluqe47wjVZACSMbNpkttjbwifdep=%*:2=:apjaet",
"llajvBxnVAltq7442>,-t,+O=+O@=#==*>%,7-0eM0wa0tyqyp9h,tstyyidkg80reqetetrg0yr08eqqwrxrgmVu5pq7dzNBZCDCnNsmyeipdgiyqxt-,,<561wb08q",
"readBZBBxzl34711<11;2@@#@O@%#=8w3<,9s,g0meer92riiy3x4<sppijgzlq0uiurqq0qxiwerwwpystlpfaur76yrgvcBVNVBmAmvq98eeeyyrn1;<44q951me75",
"t0yknMNzjkj26655<>:O&+X$$@++$&-92;;,-22>j:7e86wyu7;m7qujy7rddjeyjy0qwew0xawq0wqsiwhhyzjwrwacqsncmvjlgzNzaww7536ruyN55,>43=5*bs61",
"947uiwt221i&-:;>%$#O5OXoOXX +X.X-20,22%,f@#>:=-;+X-p054e49fxnf6174367<<6h6,:1,>>=,7d7que956719thfhgkjjvwj;>:;35550n5;%-*;-@+g630",
"mgxkphAnnmMhsglu876yq>y0te75,,3efetqwqrfBt9axjnffhmAbjgzjfuktjhfdjfpiaykczhksdfsllvcjklvjlvzvzhe90w,;3>tkxlMZSAZVDFZMxvbkgrue0ee",
"064,54521<7,*>1ge8s0>:,6992<&,11=&;**:,ry7506wrewae0eqwepmDBBMgnmMmkgsppsgfjfxi98908wryaayertprywykNVZNNMmnMbvvNmnMbnBBiyrsttiad",
"341*2<83;**%%#&1>5q704>*2<;#%-;:7384>7iyiiirqeeq4wwt97q7pmxfapzBANbnhsapyapyxju5rq669qy943<,,,5116cZMVNmclVCZCCSAVVAASSsa==&$$@+",
"422:,,<1&&;-*;:53wr844628ig76q8080q@+ytr679q867q87q7607w7aapiilnAvkaghhydgstaj4,etw078i56<==--3486xZFDDFZnNSFFFFDDADFFFs0O..   +",
";-355333>;21,-<ygq90158398w666160q3;:72163564477,22:2490:tagpaNmDDvsfsurypaihf537qrqpe59037,<<5245lVDFDMMbMZSVNxBMZFSSAwq$o X=$+",
"2,;2216122<;%:;ideq%-;09iytagqeirt$O>&3>46478e6858217ry99,4tpggzzzy12ar00qyq0k1>7w8425*<35482,>:5qjrjccjbvvzvdc9wpezsrr96XooX#O ",
"jzghup8<qqaii0anr545976q7=><>*@+++XO#.. XXX@#%#XXX.X +oO65*;%&=;>;=;,7:*11<6ihwrhzlyuuy:;6:57<28eas8%&**:&<-,@;=6923237rmpuswupr",
"cuhsiflfuehdwetiyshi2*7483>o-O=;<;$->2&**#-5075>&,:&;+$$;e9tr9>9ypfapw55&qasfhertq3rewiu1%<-:37170tiust@o&3:2w$&OXe#tde17try6<3o",
"Mkvbmmbhseaj79ytit2o#973,@oo@o.=,00w0qw04:#o@+$->>,+1>15<7<4:$>afdsppy0t5940w065579r1<:,-$#@,;29e0rafgt<.o@OOoO X-#-afsar98q3%oo",
"Zblbbbnbhynlt86=6q007qww55>-+Oo@-10wqeww7--&;:;O@@*;$%,-3-,18;5pjuqer9tt1-300wtw1;5312;%,>O@,9377655w8e,$$oXX .  #X5daq8499e*.XX",
"CMfbfxhzmjVpuu8>1yetu8513qq81-+,37569q669#%=1;;8>>*+&,,352213:4eq0yuu986-:4w953>6>=-**$>1%#o$&,4226q670-w8*@O.@X.=1gji8wrr9q@,oo",
"mkfeipkxnrvy8482*0632*3<=,,4,4;eqw747qq7&X=>,;>231*o&@=<11,=&$&irret9w77+116e3<2--@.O#&;<<*#@;3<65877wy+:%$:,2=% &enbfdpyyt9+;&o",
"x97ynpre22ri,>3<=::;:*@o.+++oO@-%,::;48>..XXooO+@#O ooOO+OoX.,6+$&&#%#$%#@o#+Oo  .#.   .XO@+*,##6466q33@X  @@O$=*3<-$+#@oooX o. ",
"cBCDADZZVNzzhjyt$&&$;#+@X#$$@@,3%372*$#$36<o%=3,:>,1*.oo >&3%69,#<6iysufdsie8>=:6qewq8eyqq00yu749ufhcbgy61378088tssiifa5++XO::+O",
"qkczi7inmeuid91je99we66ytre4* X#+%$O@.+-2;<%==>=*&@@o#X+%3$*#=%*-70tyi6ist374,iyey2-;,,3<,=:=-;==$6kdr9=>:>*,;*1<<>==4rqo$#+$$#.",
"7epkbzamBnvhiw7ciqq02466qwuq9>=;1qr0y:*=$,--$=:22:=X::@%4q#O@%@#&46342236-o-&6pfra71$%#:&*;<%@OX.X9p0513qryuereq0431><60%;1*&-=$",
"yjanZnmAZZCmvh0kfqtqr08528006535087e01--+%1*& o@@o.XO*=-9u&$;3<3435365317&*;5e7w26743%#$%$@:-%O   wf44*:25q64733,-,:4887,<7>5,19",
"bnkNlhglhbvakcuk77eeww6treqwtwypsyaw;=&@#+:%>,,<4,*$*<r90r>367<495123<54656pj87gudr436<<2,<2;*%@@o9e<<<,67w654<,224lpuue-1<-;<39",
"qe432<;;::>===&OXO@+#=&;*%$%@=&->,:-+o..O .X@%+o$#o>@$@-#:.#o#X@>,#Oo@*60434,05;6r627e9672-1,;;,$O-$:#>18gzsr01*548giu4:#$%&#%*#",
"5yir,45214w;ryee04*$501<4r62,<>$*$$*4<:%*.Xo$#+O@$.  X..o;*.%9774998wuyggfxcsat660533-::;;,-*@$#-:603,e568:*-<12>:,;=-,=@$-==;*%",
"+,841,-%$$&=,32>:;#*>389yr9qryu=$;:$#O&*>5qwwreque7$;2-<44=8wtrtwaee8578-==<51310<.:*:;;,*<:87-+-:8u;0iVsprisssssdlt996856q7068r",
"$O49993,<;*%,9095w66<rrwwuqq0qe+05<31:&=;8q0iiuyaay21tut9e9e4s928098801822,#+&%*3=X=323849qeur+4qifp91iCyryutytrreht6444<55<it;:",
"$$3212*4;=%O*0234:>2*yw0ww8wru91r1><1>1<5<wtr0r0wq238qaiyp0e0j1;;62<33;9>#&$O*%@>$ :4-,&,436u76%=>dsaplMewrrretrrwli99831<23pi>1",
"*<887449q2;#27664978*iq6507w067mg00q0412;6iyppdsit0srapwtutuex7><13364<>*,;=%#:<4+ :78874>33twp%@>ukjnbmerrrrweerwn079w65568gi>8",
"$#46<<;94<5w=2;3535<1hutwttr85*g9-&;:-<1;pt0wqerrr09tr015w95>a07qq42551=3#Xo+<=0r+<95979rtwtzyi7,8du7yjvetrererwq0Vt59r065w9dq:*",
"ueqe67erdgdhq153<&:%>*-%&:#@#=*<31*-;>4;3u<w-7;$=->4*&&-42o XqO+O-;@@-*0suy8<1*,,5shui8348yufpryhffgjlckt<;:2,&;>pAr2<>25iqyh0Oo",
"cvVcxzxkjlhlxlkfny3686632q:47et998rpt76yr894qw84q9ryi932*:*32p#=3w455<-qd8uhgjuyppiiprutsasajaaaikgfMziq9468ru0eytp67wtvkgkjblgs",
"dgfsaadjfpujzsaumgww6500q99rey0415yi3ywpiurwyirqetr0etytw3,223:>:1:,<@%-,-$;ikttttww77w9qeq00q00rc*=48422<%;1553368-=&rd995965ge",
"fzapsssghspadspiflweq8615>48658q2<=;>9=:>46wysuqytt808er<u476w556->-@$;;$##+3kertterptewazsewtrgdB404;=%==&&-;;=>,;*,@sr80003374",
"fjfsaajgdlxghjfdgu13>282,842635y1387>7858qq52750ryy079rq9u217938<;=:3>=*=#;*8kwrtwrtptreygcrtdzipn;>&@@+#$@*-%&%-@#->2ht8qwe6588",
"hdgjnalldffuiituu<15766<2,37405131,337q79re9wweteti0wqq7=-&wq55<-;<:->:=,>14tgqre0qeereerlnrrwterb&&+X#-%#>2:&:3<32:<>p96teq1295",
"989tq4we753;*=*4gvjsvje776&&*8442775>-%##;5,>@$26,;,:;$=$O.XX.XOo&##+&=:3,;6th01,92>-1><54521>@X>8.    O... .XXo.XOXooe7$>*;OO-,",
"tkbxjfssy9uyquhjcjjiig0894<648wnigazfuggglv6q191<19haut0rw9>*%oo+@O$XX%;<60egur9r9qydmvvmd5,=,-,24-$O@@O;2>37762:&>15fVns86>:60t",
"z9uuttwewejwq6a045<,6s++#@.XX@&8q55-&3=448sd3<*&-:35ddafdaiyq1o:12:;%#&-O#@:%;**&$*q,5440<*:#-@%O*%+oo#;%2wiiitiuwq638q821=<&,<6",
"cweteyuw77lu3759wq,%=hOooX.XXX+r2<4@ .$76wbt,><<>:3<ae84<2132->--#$O#=-;$;=-3621<*r3,4214;:>+@++o@@*&&*->ipiprey9t9;473*2;#*>,*-",
"g4ee0ew083lqq874+=;@2h. Xo  o.Xf2>3o   76yN<;>=:;:,7heui90t0e06&->-*%*,,034673544;40<2<<>;::#%-%%$*:;%>$rut0wiw8qe2*<3122-*O*&;3",
"d-w979q864b7%=&--O.&2s .   .XoXt5;<.+XX87tN;-:wq1*:-5:;-317872w,3>:>:::;1;14r<31731,#;*;2,:@+#-;;,*<:1>#28uee88q78=*1<>&%Oo+#$;*",
"r;4,<,%;,4n,@O%-+O-:e5#X  oX.X @@+*+-;$136m#o+#>;+&X$4<<>:%&*=24%-;%*%:-+O@+1=%o$=3%.>*@=:o@%O+O#$+-=>*$56etur0qt8-+O@X+X .<-oX.",
"bZmbnMbxMmBlatq9etuslssjf669yrwa80q882:>87pi9::9q6,#1076qjiypegzaaafjahjiifupdhhdha73747456wap0qraalxdqe3$$%>89ydu4+OX..%#;>*&=,",
"32>:>r8,:373-;%*>125661;O=$.+.#788826,5:%297,oO-;1<76uw8#p%*#$$$+#*+.$;:,*,<2riaadiiiifsaiphffjiyyky0ytqryw0ieyert0t8w3<=%%;-=@#",
"32>650w6:214132=4X$**=3,oX X   >:::7%@o#.O.$:#&&$:;@@;3#&d..XX=oO.XX.@#-OX##>7siirwearcsutewreeerefsq098977700098qq74484$+.X.$+O",
"55547664495550348X.oO@X  .X    #-=:5&%&@X.X@.   &<O%#,:;*qXo X%o@X XX  O+oX.+7gyeq00iekautewreqwrtuj099w08889909987395ar:4&o@O.@",
"0ww0906<61346<,&*XO.. o+.++   .#o-&,%+<@.XOoXOX@+O.@O$:3-tXX OX ..   X..OX.X+<dywqqwgeppyewwweerytlx8769634689677762559q4:<4-@Oo",
";*:<<51<<:,,3,&@o.X.oo  X$# o.o*:*>>O &;$.OX@o%%XX+#;=7e*s*Oo.   .O   ..  XO@&ystrefvs80tweyui205,rd9:<84$;57787w966665078587>;=",
"oXX+$@%#%$&+X. &>oo+*$@O o@+O   ..X... X  O.oOOO. .O+OOOX<@@++#&+oo$O@-:#+$*2705931w0099eq9t6149re93*oo#%-*#+:>:>=&&%$45OoO-$-<=",
"<=6623-:;:34::-12&:>95*@X**,380;;<3&16415+-,2-&184878it7<08a85&,2=,321713,w3yprwui7e0efigsfhdum9q784<:*;<yfawrpw08e75<49$$&==5>q",
"X,o .X .oX+: . . .oX+O.o-XO+&@%#,49795;>O.# .$$,<33<8@#%>&=@,+X,&@o+OO#,6l6277253;;o;233668>:2u;9$=#@+o@$%*=364:=$$-*XXO+X.XXoX@",
".3+o.o .. X1.o.%oXooo,##<#$%.o+=<>373266:XXX=690971<,<$%*>35>O#%=,,=*%%=9t45607451;;3$*;,:72,2y%$%<<3O@X+#$<$$+O@X$=#+&@+&Xo@X**",
"-3# @%%=%o.>Xo52#O@..h7&,&-<4,-;*5753<221%+$,60q81>>:,=><2163,X,t8$#$-&,:039etw0q5619+=04-*;-:5=;=-**=&&&O..  .  X:$.XOO.+o +4:;",
",>-;&;<,=.$0.@$&#*$O$u*&>4<q5:>517320q7>-;,=2587543=,%$+,1722:&=->=%&;-2:43qrr02<,54q,4u1*@&#+-O=&*$%*:,+oO      X&#   XXOo.%074",
"7w-3;;*$Oo.,$002;*&$-3%;&:3t0504:&,<2-%X++2O##$++XXXO.+O1>>=##->3*46-&*&-,&,&&*%%=$-746<$#:;*$6.O@@OXXOO=*%@*@oXO,:o. +O@.@.-*OX",
"ZNcxzzzjklglxlzNASMkZfzNVSZNNNbjzgp8812;+;a72=#$<,:11>;>0lcpytsutczi4<8twir27277;#&6t8544<5736i71>4uhgCVZAbkgfjxvnNnvxjfa#$&4+.O",
"68908997908r98qqzrrtfwerwqertu0w06ter7tt80:. X.X@@+o...o+p-#--<:-=;::::,<32$+@o-:6#%>o>%+O16q46-##3qxuusauufupaprupiipy7g.oo%o..",
"24443653525p6279Ct633489000ti99542999u=.X$XXXX oXXO.oo.XX%*#&;;%=;:=-;&=%$*%O@+069771:&$#o&583qwq,*3jweeq90qqwwqqys0qww6a.Xo$#@@",
",,178w9e747wy77pBw633350909q87r21,287h2O.X@@X .+    . X.. :$@=;%=-:*>=-*&-=-=%+1<er682=O-@X27w9<#7;8dq0009qqqwywehiwqwq6j@%%Oo%#",
",-<66plhi8q9irqaj<<<5569089994>1;,164gw o.. +...&X%o#X   O&%+##-:%:=&:<-$#&:,-@54w5-:;=@*O.O%$O.%$7ruqw00qwwweierarqwwq5p4-#@--&",
"32382=ieufkauy0dk=2522953:2-2>,,%=<2=y0X+X...Xo.. X @$.  @+.XX ##O=-&;@X. X##o.e3,<=$%-*,$o.oX...O,qwqw577w9q0q75we9908:t>oO@@+X",
"o.O1<982@OO+oOO$3>%OoXOO.O*O#;*q231:,r0*@oO.. .o=:--<*=&#%-OOO. .XX.  . X.X.oXo=oO*=;$o .XX$>#+%@.o,w%@XO&+XXXX.OOOX.ooX,o. XXX.",
"=<%$=-;&O$O:$$#*2>&:*;<;&=>:*%@-:;:;<33::$o %XOO$@$&+O%%#@XX+$+##*&$##%%=X#<&*$*$@+. #@o .X @O %429w3;1&O+-*#%*$==#$@$=133$X+$*o",
"X% X.OX.X..-%XX@$o.  oXO&$oO.X.o0$>221<:;&#+o@OO+O@+o.X  X..o.  @   ..   $%OX    O..o%X  XX.X .#<@&++&-,+X..+ Xo   XO%O#Oo   .. ",
" ;XX..X  . 1Xo X.X#o.OXXO++#o+OO-**;;<3*:$$;OooOo$$*O>+XX+OX+#. % ..  X  ;+oXX      $%.@ .X=oO.O& X   o2@%   ..... . +XO+#o+.   ",
".X   XX.XX &..%.O@XOO%OX@@OoO#O>>;>:15211;&*X+$$4&;#++....X.X . $.  .o ..<@$%.  .. .&$.X.OX+oo+XOXX  ..#@+    X.   .X#**&&XoX  .",
"+O$X. OXX. O+*Xo@XX.-@#+o.oX&o#+%+@&$@=$$@O+o@@X%XO&.&X.oo.X... ,  X .X. <O$O  OX oo&$XOXXoO+.o@OO$@%$##@o  O  .  ..X+&OO+$+oX  ",
">*o X .&=%%#X .oo  +X=$O@%$%=&+1,--&+#O@$=-+oOXXO%oX$3*X     oX -.   .   o.O+OXO.o+%sq:-=$+X. &2OX..    ..         $O      +@>#+",
"o.X   .:6X&$#===<98qypsypipfkwyhcxfp1q554<0q>&*><-72>-;3-%.-=e6,4:;35=54,<<:::<ijglzllpzzhjpskja6$@#>@#$+&&@#%4>4;;<#. X#>4eizkd",
" .$+ .     . X>t60w009989980epr9t099wt++&$%+#@+OoXO&@@O-@o%.  .Xo . #&%@.Xo.  .48qqqqqrwq0qqqqwwq7,=,o + O X XoXo#@$ X ++700tqsi",
"  #  o. .  @ .-puqq0qq9888880q998897qf$$*@@$+o@%XX++OX.+$.1O.@XX  oo X .    X ok9qwqqqqqq0wq0qqqwew4t%O.o.XX .X.  X.XXX+*17779et",
"X . . #o   .X. uewq099888888898009890d$#*#++@+oXoXo+O oXo.=XoX.#%    .  .  +X @z6q0qregkyykyeqwqwqwq1*. XO O.OoO#XO.OX..#36678qw",
"X . .;$.. +-%..s*eiq14q98998878999967i+&@+O@o+@@*Xo$O@oXXX#X oXooOOXX .oXXX.+ @h50qeafjkjzxjzwqqr0962$.XO.X# +-%$+=$++@O*077978u",
"1&;>-:<1%*&$$ .4$O$@@&#@%&;#%-1=-&&$$4o++.XX.ooo . .X oX .o   .  ..X..Xo X XOX%s@@&--2e656>13-*>;#.Of@+OX  Ooo-X.. .X+O &970070e",
"678pfqt0q>qq63tqs087-:*%91578<:48q3533=$o.       XoXo::@O%.Xo,.*1*&;;;*#.1657596=*%X#O.%#@%*&oXX.+$;6+.#O#,:O;*$@+ Xoo+=-6977,-@",
"syqti9t6383O  +XXoX@XX..*Oo ...%;3>27dye,&@+XO.XoOX+o=&..X @.@=3OX.o$%%# 1-*$$#O$$. .. .  O  ; :* Oo . oXX ..XX ..X   X XO .o.  ",
"96885,,=&r=   X O   $+ooXo+o% #%O$+$%>-%.6-oX $. .X O. X .Xoo.=X XO+o##@O@X$OO+o#& Xo        . X.X#  . . . oX  o...        .   .",
"q8qq7-#=-u<o. .    o-6+# +##@X4OoOo##X@%%><.  2X    X $O. O.X &#XXo+$+&oO=<>+@%+%<@&  .X .     XX  O@X. .. X .XO   o . .X#o  XX.",
"a3qq74412p=X   $  .O$    o  ..;XOo$%=X+&1#2.oo .   . X. .  XX.++ ++*o*1+#+XoOOO+*;o@#X Xo.XX .  oo.OXX =oX   ..Xo  + ..X $o.  oo",
"9072qr232u-+   X. o#=+oo#@&  .# X$#++oX;$*@. X.Xo        +  .. OO$@+o@*X&@X%#O$O#O &&       .    ..X X +#    . XX ., . ..     . ",
"o%=@@O$OoO<-+Oo##-:*>$<*>@.  o@.     .XX+:<4><<*@+#@%#OoX+o@+OXo#>=:*4**;@o#X   .OOX+o.   .oX.. .. oO@oO+o. X@*#%*@$X . ..      ",
"ahprpa4r4qywsr,4oo. oXO@X. X O=@Xo&o.58<5:>>%5;,484679qt56&;*&*@O$=%#O%#%O;+-;,;-##@#%#;1o$@OoX$#%5y>%=1%%o#$*@+$:*1&o$+o#ooOXXX",
"1e45,9064#=**gyp+.. +oX   o&ooX  X&O*@&=&&-oO .;;=<;O@$%&<X+Oo+#..X@XO#%%... .#;+XoOo...Xo...X@. .;;.@+Xo$++ o.  X.X. X.        ",
"89qz61t3:<;:;83jO.X X...1&.o+<:XOX..g#+X&;%#O+$o@O*%$##-*7O.++#O++Ooooo&$.O..%=.$@XOX+.O. .  oXXXXo&X .o.. ...   XoO.+ X        ",
"dr333107qs2>:34u@ . ..$o oo +. .# X :>>@O&o;*=+O@;>=:>-,%2#X#=@@+.O.OoXO@oOo .OoXXoX@o ..o.o + X   o. O.X XoO X..O.o.O          ",
"uu9qwwwwu5<;:$2go.oXX.o o +X@.O.XoO @=3==+@%o*%-&%=*>-<:$<$.o@++X@+o..X.& .   #  oO++*o+.+@@.X+.. +Xo+%oo#+o&XOX.OXX+.. X.      ",
"&%&;<35,6&@o++;0%+#+o+o ...o. .Ooo...o=;*++$#oo+O@Oo#==#Xo     .oO%oX+..XO  O X  X@-:571:3,;;,6,,16927;364,$@ o@. .     X.      ",
"=-><>-331quughBnBnCCur47aw9132#XX&=#=5*=: ;$*=:<65:%%&+=#<>:>@>5<61;:,>>4@-*o#:-=101sjvlfhbgjg7uckzxvxghid5q62,-5*oO#&O$**O,*$:>",
".o X.X.  t=%*&-iywwx:--o.X .X>16<%@##O@$*+&. .X . ..#@+$+@%@<><+X+%+*+&%%4$$&===&*=3ajreeyjpw97dp90qeqrw5dX  #-.oo:+  $ X .o +%O",
" .o..OoX yX    %3-=7>6oo      $< +944;:%=.$  .   X#X1$&%&%%#-,:=.++o$#@#*, XXXOo..o:d07799icq5if816wq5774do.oo..X. o      -O oo "
};
