/* XPM */
static char *bigger[] = {
/* columns rows colors chars-per-pixel */
"128 128 5 1 ",
"  c #0E3F33",
". c #1AAA86",
"X c #26D5AA",
"o c #DAD1D1",
"O c white",
/* pixels */
"XXXXXXXX....XXXXXX..  XXXXXXXXXXXX..XXXX..  XXXXXXXXXXXXXXXXXX..  XXXXXXXXXXXXXXXXXX..  XXXXXXXXXX....XXXX..  XXXXXX..XXXXXXXXXX",
"XXXXXXXX....XXXXXX..  XXXXXXXXXXXX..XXXX..  XXXXXXXXXXXXXXXXXX..  XXXXXXXXXXXXXXXXXX..  XXXXXXXXXX....XXXX..  XXXXXX..XXXXXXXXXX",
"XXXXXXXXXXXXXXXXXX..  XXXXXXXXXXXXXXXXXX..  XXXXXX..XXXXXXXXXX..  XXXXXXXXXXXX..XXXX..  XXXXXXXXXXXXXXXXXX..  XXXXXXXXXXXXXX..XX",
"XXXXXXXXXXXXXXXXXX..  XXXXXXXXXXXXXXXXXX..  XXXXXX..XXXXXXXXXX..  XXXXXXXXXXXX..XXXX..  XXXXXXXXXXXXXXXXXX..  XXXXXXXXXXXXXX..XX",
"....................  ....................  ....................  ....................  ....................  ..................",
"....................  ....................  ....................  ....................  ....................  ..................",
"                                                                                                                                ",
"                                                                                                                                ",
"XXXXXX  XXXXXXXXXXXXXXXXXXXX  XXXXXXXXXXXXXXXXXXXX  XXXXXXXXXXXXXXXXXXXX  XXXXXXXXXXXXXXXXXXXX  XXXXXXXXXXXXXXXXXXXX  XXXXXXXXXX",
"XXXXXX  XXXXXXXXXXXXXXXXXXXX  XXXXXXXXXXXXXXXXXXXX  XXXXXXXXXXXXXXXXXXXX  XXXXXXXXXXXXXXXXXXXX  XXXXXXXXXXXXXXXXXXXX  XXXXXXXXXX",
"XXXX..  XXXXXX....XXXXXXXX..  XXXXXXXXXXXX....XX..  XXXXXXXXXXXXXXXXXX..  XXXXXXXXXXXX..XXXX..  XXXXXXXXXXXXXXXXXX..  XXXXXXXXXX",
"XXXX..  XXXXXX....XXXXXXXX..  XXXXXXXXXXXX....XX..  XXXXXXXXXXXXXXXXXX..  XXXXXXXXXXXX..XXXX..  XXXXXXXXXXXXXXXXXX..  XXXXXXXXXX",
"XX....  XXXXXXXXXXXX..XXXX..  XXXX..XXXXXXXXXXXX..  XXXXXX....XXXXXXXX..  XXXX..XXXXXXXXXXXX..  XX..XXXXXXXXXXXXXX..  XXXX....XX",
"XX....  XXXXXXXXXXXX..XXXX..  XXXX..XXXXXXXXXXXX..  XXXXXX....XXXXXXXX..  XXXX..XXXXXXXXXXXX..  XX..XXXXXXXXXXXXXX..  XXXX....XX",
"XXXX..  XXXXXXXXXXXXXXXXXX..  XXXXXXXXXXXXXXXXXX..  XXXXXXXXXXXX..XXXX..  XXXXXXXXXXXXXXXXXX..  XXXXXXXXXXXXXXXXXX..  XXXXXXXXXX",
"XXXX..  XXXXXXXXXXXXXXXXXX..  XXXXXXXXXXXXXXXXXX..  XXXXXXXXXXXX..XXXX..  XXXXXXXXXXXXXXXXXX..  XXXXXXXXXXXXXXXXXX..  XXXXXXXXXX",
"......  ....................  ....................  ....................  ....................  ....................  ..........",
"......  ....................  ....................  ....................  ....................  ....................  ..........",
"                                                                                                                                ",
"                                                                                                                                ",
"XXXXXXXXXXXXXX  XXXXXXXXXXXXXXXXXXXX  XXXXXXXXXXXXXXXXOOOOooOOOOOOOOOOOOOOXXXXXX  XXXXXXXXXXXXXXXXXXXX  XXXXXXXXXXXXXXXXXXXX  XX",
"XXXXXXXXXXXXXX  XXXXXXXXXXXXXXXXXXXX  XXXXXXXXXXXXXXXXOOOOooOOOOOOOOOOOOOOXXXXXX  XXXXXXXXXXXXXXXXXXXX  XXXXXXXXXXXXXXXXXXXX  XX",
"XXXXXXXXXXXX..  XXXXXXXXXXXX....XX..  XXXXXXXXOOOOOOOOXX..  XXXXXXXXXXXXXXOOOOooooXXXX....XXXXXXXXXX..  XXXXXXXX..XXXXXXXX..  XX",
"XXXXXXXXXXXX..  XXXXXXXXXXXX....XX..  XXXXXXXXOOOOOOOOXX..  XXXXXXXXXXXXXXOOOOooooXXXX....XXXXXXXXXX..  XXXXXXXX..XXXXXXXX..  XX",
"XXXX....XXXX..  XXXX....XXXXXXXXXX..  XXXXOOOOXXXXXX..XX..  XXXXXXXX....XXXXXX..  OOOOXXXXXXXXXXXXXX..  XXXXXXXXXX....XXXX..  XX",
"XXXX....XXXX..  XXXX....XXXXXXXXXX..  XXXXOOOOXXXXXX..XX..  XXXXXXXX....XXXXXX..  OOOOXXXXXXXXXXXXXX..  XXXXXXXXXX....XXXX..  XX",
"XXXXXXXXXXXX..  XXXXXXXXXXXXXXXXXX..  OOOOXXXXXXXXXXXX....  XX..XXXXXXXXXXXXXX..  XXXXOOOOXX....XXXX..  XXXXXXXXXXXXXXXXXX..  XX",
"XXXXXXXXXXXX..  XXXXXXXXXXXXXXXXXX..  OOOOXXXXXXXXXXXX....  XX..XXXXXXXXXXXXXX..  XXXXOOOOXX....XXXX..  XXXXXXXXXXXXXXXXXX..  XX",
"..............  ..................oooo....................  ....................  ........oooo........  ....................  ..",
"..............  ..................oooo....................  ....................  ........oooo........  ....................  ..",
"                                OO                                                            oo                                ",
"                                OO                                                            oo                                ",
"  XXXXXXXXXXXXXXXXXXXX  XXXXXXOOXXXXXXXXXXXX  XXXXXXXXXXXXXXXXXXXX  XXXXXXXXXXXXXXXXXXXX  XXXXXXOOXXXXXXXXXXXX  XXXXXXXXXXXXXXXX",
"  XXXXXXXXXXXXXXXXXXXX  XXXXXXOOXXXXXXXXXXXX  XXXXXXXXXXXXXXXXXXXX  XXXXXXXXXXXXXXXXXXXX  XXXXXXOOXXXXXXXXXXXX  XXXXXXXXXXXXXXXX",
"  XXXXXXXXXX..XXXXXX..  XXXXOOXXXXXX....XX..  XXXXXXXXXXXX....XX..  XXXX....XXXXXXXXXX..  XXXX..XXOOXXXXXXXX..  XXXXXXXX..XXXXXX",
"  XXXXXXXXXX..XXXXXX..  XXXXOOXXXXXX....XX..  XXXXXXXXXXXX....XX..  XXXX....XXXXXXXXXX..  XXXX..XXOOXXXXXXXX..  XXXXXXXX..XXXXXX",
"  XXXX..XXXXXXXX......  XXOO..XXXXXXXXXXXX..  XXXXXX....XXXXXXXX..  XXXXXXXXXX....XXXX..  XXXXXXXXXXOO....XX..  XX....XXXXXX..XX",
"  XXXX..XXXXXXXX......  XXOO..XXXXXXXXXXXX..  XXXXXX....XXXXXXXX..  XXXXXXXXXX....XXXX..  XXXXXXXXXXOO....XX..  XX....XXXXXX..XX",
"  XXXXXXXXXXXXXXXXXX..  OOXXXXXXXXXXXXXXXX..  XX....XXXXXXXXXXXX..  XXXXXXXXXXXXXXXXXX..  ..XXXX..XXXXOOXXXX..  XXXXXXXXXXXXXXXX",
"  XXXXXXXXXXXXXXXXXX..  OOXXXXXXXXXXXXXXXX..  XX....XXXXXXXXXXXX..  XXXXXXXXXXXXXXXXXX..  ..XXXX..XXXXOOXXXX..  XXXXXXXXXXXXXXXX",
"  ....................oo..........OO........  ....................  ....................  ..OO..........oo....  ................",
"  ....................oo..........OO........  ....................  ....................  ..OO..........oo....  ................",
"                      oo          oooo                                                    OOOO          oo                      ",
"                      oo          oooo                                                    OOOO          oo                      ",
"XXXXXXXX  XXXXXXXXXXOOXXXXXXXX  XXooOOOOXXXXXXXXXXXX  XXXXXXXXXXXXXXXXXXXX  XXXXXXXXXXXXOOOOooXX  XXXXXXXXOOXXXXXXXXXX  XXXXXXXX",
"XXXXXXXX  XXXXXXXXXXOOXXXXXXXX  XXooOOOOXXXXXXXXXXXX  XXXXXXXXXXXXXXXXXXXX  XXXXXXXXXXXXOOOOooXX  XXXXXXXXOOXXXXXXXXXX  XXXXXXXX",
"XXXXXX..  XXXX....XXOOXXXXXX..  XXXXOOOO..XX....XX..  XXXXXXXX....XXXXXX..  XXXXXX....XXOOOOXX..  XXXXXXXXOO..XXXXXX..  XXXXXXXX",
"XXXXXX..  XXXX....XXOOXXXXXX..  XXXXOOOO..XX....XX..  XXXXXXXX....XXXXXX..  XXXXXX....XXOOOOXX..  XXXXXXXXOO..XXXXXX..  XXXXXXXX",
"....XX..  XX..XXXXOO..XX..XX..  XXXXOOOOOOXXXXXXXX..  XXXX..XXXXXXXXXX....  XXXXXXXXXXOOOOooXX..  XXXXXXXXXXOOXXXXXX..  XXXXXX..",
"....XX..  XX..XXXXOO..XX..XX..  XXXXOOOOOOXXXXXXXX..  XXXX..XXXXXXXXXX....  XXXXXXXXXXOOOOooXX..  XXXXXXXXXXOOXXXXXX..  XXXXXX..",
"XXXXXX..  XXXXXXXXOOXXXXXXXX..  XXXXooOOOOXXXXXXXX..  XXXXXXXXXXXXXXXXXX..  XXXXXXXXXXOOOOooXX..  XXXX..XXXXOOXX..XX..  XX....XX",
"XXXXXX..  XXXXXXXXOOXXXXXXXX..  XXXXooOOOOXXXXXXXX..  XXXXXXXXXXXXXXXXXX..  XXXXXXXXXXOOOOooXX..  XXXX..XXXXOOXX..XX..  XX....XX",
"........  ........oo..........  ......OOOOOO........  ....................  ........oooooo......  ..........oo........  ........",
"........  ........oo..........  ......OOOOOO........  ....................  ........oooooo......  ..........oo........  ........",
"                oo                    oooooo                                        OOOOoo                    oo                ",
"                oo                    oooooo                                        OOOOoo                    oo                ",
"XXXXXXXXXXXXXXXXOOXXXXXXXXXXXXXXXXXXXXooOOOOXXXXXXXXXXXXXXXX  XX..XXXXXXXXXXXXXX  XXOOOOooXXXXXXXXXXXXXX  XXXXOOXXXXXXXXXXXXXX  ",
"XXXXXXXXXXXXXXXXOOXXXXXXXXXXXXXXXXXXXXooOOOOXXXXXXXXXXXXXXXX  XX..XXXXXXXXXXXXXX  XXOOOOooXXXXXXXXXXXXXX  XXXXOOXXXXXXXXXXXXXX  ",
"XXXXXX....XXXX..OOXX..XXXXXX....XXXXXX  OOOOOOXXXX....XXXXXX  XXXXXXXXXXXXXX....  OOOOOOXX....XXXXXXXX..  XXXXOOXXXXXXXXXXXX..  ",
"XXXXXX....XXXX..OOXX..XXXXXX....XXXXXX  OOOOOOXXXX....XXXXXX  XXXXXXXXXXXXXX....  OOOOOOXX....XXXXXXXX..  XXXXOOXXXXXXXXXXXX..  ",
"..XX..XXXX..XX..OOXXXXXX..XXXXXXXX....  OOOOOO..XXXXXXXXXXXX  XXXXXXXX..XXXXXXXX  OOOOooXXXXXXXXXXXXXX..  ..XXOO....XXXX..XX..  ",
"..XX..XXXX..XX..OOXXXXXX..XXXXXXXX....  OOOOOO..XXXXXXXXXXXX  XXXXXXXX..XXXXXXXX  OOOOooXXXXXXXXXXXXXX..  ..XXOO....XXXX..XX..  ",
"XXXXXXXXXXXXXX..OOXXXXXXXXXXXXXXXXXXXX  ooOOOOXXXXXXXXXX..XX  XXXXXXXXXXXXXXXXXX  OOOOooXXXXXX..XXXXXX..  XXXXOOXXXXXXXXXXXX..  ",
"XXXXXXXXXXXXXX..OOXXXXXXXXXXXXXXXXXXXX  ooOOOOXXXXXXXXXX..XX  XXXXXXXXXXXXXXXXXX  OOOOooXXXXXX..XXXXXX..  XXXXOOXXXXXXXXXXXX..  ",
"................OO....................  ..OOOO..............  ..................  oooo..................  ....oo..............  ",
"................OO....................  ..OOOO..............  ..................  oooo..................  ....oo..............  ",
"                oo                        oooooo              OOoo              OOOOoo                        oo                ",
"                oo                        oooooo              OOoo              OOOOoo                        oo                ",
"XX  XXXXXXXXXXXXOOXXXXXX  XXXXXXXXXXXXXXXXooOOOOXXXXXXXXXXXXOOOOOOOO  XXXXXXXXXXOOOOooXX  XXXXXXXXXXXXXXXXXXXXOO  XXXXXXXXXXXXXX",
"XX  XXXXXXXXXXXXOOXXXXXX  XXXXXXXXXXXXXXXXooOOOOXXXXXXXXXXXXOOOOOOOO  XXXXXXXXXXOOOOooXX  XXXXXXXXXXXXXXXXXXXXOO  XXXXXXXXXXXXXX",
"..  XXXXXXXX....OOXXXX..  XXXX....XXXXXXXXXXOOOOXX..XXXXXXOOOOooooOOooXX..XXXXXXOOOO....  XXXXXXXXXX....XXXXXXoo  XXXXXXXXXX....",
"..  XXXXXXXX....OOXXXX..  XXXX....XXXXXXXXXXOOOOXX..XXXXXXOOOOooooOOooXX..XXXXXXOOOO....  XXXXXXXXXX....XXXXXXoo  XXXXXXXXXX....",
"..  XXXXXXXXXXXXXXOOXX..  XXXXXXXXXXXX....XXOOOOOOXXXXXXOOOOooXXXXooooOOXXXXXXOOOOooXX..  XXXXXXXXXXXXXXXXXXOO..  XXXX..XXXXXXXX",
"..  XXXXXXXXXXXXXXOOXX..  XXXXXXXXXXXX....XXOOOOOOXXXXXXOOOOooXXXXooooOOXXXXXXOOOOooXX..  XXXXXXXXXXXXXXXXXXOO..  XXXX..XXXXXXXX",
"..  XX....XXXXXXXXOOXX..  XX..XXXXXXXXXXXXXXooOOOOXXXXXXOOOOXXXXXX..ooOOXXXXXXOOOOooXX..  XXXX..XXXXXXXXXXXXOO..  XXXXXXXXXXXXXX",
"..  XX....XXXXXXXXOOXX..  XX..XXXXXXXXXXXXXXooOOOOXXXXXXOOOOXXXXXX..ooOOXXXXXXOOOOooXX..  XXXX..XXXXXXXXXXXXOO..  XXXXXXXXXXXXXX",
"..  ..............oo....  ....................oooo....oooooo........oooooo....oooo......  ..................oo..  ..............",
"..  ..............oo....  ....................oooo....oooooo........oooooo....oooo......  ..................oo..  ..............",
"                    oo                        oooooo  oooo            oooooooooooo                        oo                    ",
"                    oo                        oooooo  oooo            oooooooooooo                        oo                    ",
"XXXXXXXXXX  XXXXXXXXOOXXXXXXXXXX  XXXXXXXXXXXXooOOOOOOooooXXXXXXXXXXXXooOOOOooOOooXXXXXXXXXXXXXX  XXXXXXXXOOXXXXXXXXXXXX  XXXXXX",
"XXXXXXXXXX  XXXXXXXXOOXXXXXXXXXX  XXXXXXXXXXXXooOOOOOOooooXXXXXXXXXXXXooOOOOooOOooXXXXXXXXXXXXXX  XXXXXXXXOOXXXXXXXXXXXX  XXXXXX",
"XXXXXX....  XXXX....XXOOXX..XX..  XXXXXXXX..XXXXOOOOOOooXXXX..XXXXXXXXXXOOOOooOOXXXXXXXX....XX..  XXXXXXOOXXXXXX..XXXX..  XXXXXX",
"XXXXXX....  XXXX....XXOOXX..XX..  XXXXXXXX..XXXXOOOOOOooXXXX..XXXXXXXXXXOOOOooOOXXXXXXXX....XX..  XXXXXXOOXXXXXX..XXXX..  XXXXXX",
"....XXXX..  XXXXXXXXXXOOXXXXXX..  XX....XXXXXX..ooOOOOooXXXXXXXXXX....XXOOooooooXX....XXXXXXXX..  XX..XXOO....XXXXXXXX..  XXXXXX",
"....XXXX..  XXXXXXXXXXOOXXXXXX..  XX....XXXXXX..ooOOOOooXXXXXXXXXX....XXOOooooooXX....XXXXXXXX..  XX..XXOO....XXXXXXXX..  XXXXXX",
"XXXXXXXX..  XXXXXXXXXXXXOOXXXX..  XXXXXXXXXXXXXXXXOOOOooXXXXXXXXXXXXXXXXooooooXXXXXXXXXXXXXXXX..  XXXXOOXXXXXXXXXXXXXX..  XXXXXX",
"XXXXXXXX..  XXXXXXXXXXXXOOXXXX..  XXXXXXXXXXXXXXXXOOOOooXXXXXXXXXXXXXXXXooooooXXXXXXXXXXXXXXXX..  XXXXOOXXXXXXXXXXXXXX..  XXXXXX",
"..........  ..............oo....  ................oooo  ..................oooo..................  ..oo..................  ......",
"..........  ..............oo....  ................oooo  ..................oooo..................  ..oo..................  ......",
"                            oo                      oo                    oo                      oo                            ",
"                            oo                      oo                    oo                      oo                            ",
"XXXXXXXXXXXXXXXXXX  XXXXXXXXXXOOXXXXXXXX  XXXXXXXXXXXXXXXXXXXX  XXXXXXXXXXXXXXXXXXXX  XXXXXXXXXXOOXXXXXX  XXXXXXXXXXXXXXXXXXXX  ",
"XXXXXXXXXXXXXXXXXX  XXXXXXXXXXOOXXXXXXXX  XXXXXXXXXXXXXXXXXXXX  XXXXXXXXXXXXXXXXXXXX  XXXXXXXXXXOOXXXXXX  XXXXXXXXXXXXXXXXXXXX  ",
"XXXXXXXXXXXXXXXX..  XXXXXX..XXXXOOXXXX..  XXXXXXXXXXXXXXXXXX..  XXXXXXXXXXXXXXXX....  XXXXXXXXOOXXXXXX..  XXXXXXXXXXXXXXXXXX..  ",
"XXXXXXXXXXXXXXXX..  XXXXXX..XXXXOOXXXX..  XXXXXXXXXXXXXXXXXX..  XXXXXXXXXXXXXXXX....  XXXXXXXXOOXXXXXX..  XXXXXXXXXXXXXXXXXX..  ",
"XX....XX..XXXXXX..  XXXXXXXXXXXX..OOOO..  XXXXXXXX..XX....XX..  XXXXXX..XX....XXXX..  XXXXOOOOXXXX..XX..  XXXX....XXXX....XX..  ",
"XX....XX..XXXXXX..  XXXXXXXXXXXX..OOOO..  XXXXXXXX..XX....XX..  XXXXXX..XX....XXXX..  XXXXOOOOXXXX..XX..  XXXX....XXXX....XX..  ",
"XXXXXXXXXXXXXXXX..  XXXXXXXXXXXXXXXXXXooooXXXXXXXXXXXXXXXXXX..  XXXXXXXXXXXXXXXXXX..  OOOOXXXX..XXXXXX..  XXXXXXXX..XXXXXXXX..  ",
"XXXXXXXXXXXXXXXX..  XXXXXXXXXXXXXXXXXXooooXXXXXXXXXXXXXXXXXX..  XXXXXXXXXXXXXXXXXX..  OOOOXXXX..XXXXXX..  XXXXXXXX..XXXXXXXX..  ",
"..................  ....................  oooo................  ..................oooo..................  ....................  ",
"..................  ....................  oooo................  ..................oooo..................  ....................  ",
"                                              oooooooo                    oooooooo                                              ",
"                                              oooooooo                    oooooooo                                              ",
"XXXX  XXXXXXXXXXXXXXXXXXXX  XXXXXXXXXXXXXXXXXXXX  XXXXOOOOOOOOOOOOOOOOOOOOXXXXXXXXXXXXXXXXXX  XXXXXXXXXXXXXXXXXX  XXXXXXXXXXXXXX",
"XXXX  XXXXXXXXXXXXXXXXXXXX  XXXXXXXXXXXXXXXXXXXX  XXXXOOOOOOOOOOOOOOOOOOOOXXXXXXXXXXXXXXXXXX  XXXXXXXXXXXXXXXXXX  XXXXXXXXXXXXXX",
"XX..  XXXXXXXXXXXXXXXXXX..  XXXXXXXXXXXXXXXXXX..  XXXXXXXXXXXXXXXXXX..  XXXXXXXXXXXXXXXXXX..  XXXXXXXXXX....XX..  XXXXXXXXXXXXXX",
"XX..  XXXXXXXXXXXXXXXXXX..  XXXXXXXXXXXXXXXXXX..  XXXXXXXXXXXXXXXXXX..  XXXXXXXXXXXXXXXXXX..  XXXXXXXXXX....XX..  XXXXXXXXXXXXXX",
"XX..  XXXX....XXXXXXXX....  XXXX....XXXX..XXXX..  XXXXXXXXXX....XXXX..  XXXXXXXXXXXX..XXXX..  XXXXXXXXXXXXXXXX..  XX....XXXX..XX",
"XX..  XXXX....XXXXXXXX....  XXXX....XXXX..XXXX..  XXXXXXXXXX....XXXX..  XXXXXXXXXXXX..XXXX..  XXXXXXXXXXXXXXXX..  XX....XXXX..XX",
"XX..  XXXXXXXXXXXX..XXXX..  XXXXXXXXXXXXXX..XX..  XXXXXXXXXXXXXXXX....  XXXX....XXXXXXXXXX..  XXXX..XX..XXXXXX..  XXXXXXXXXXXXXX",
"XX..  XXXXXXXXXXXX..XXXX..  XXXXXXXXXXXXXX..XX..  XXXXXXXXXXXXXXXX....  XXXX....XXXXXXXXXX..  XXXX..XX..XXXXXX..  XXXXXXXXXXXXXX",
"....  ....................  ....................  ....................  ....................  ..................  ..............",
"....  ....................  ....................  ....................  ....................  ..................  ..............",
"                                                                                                                                ",
"                                                                                                                                ",
"XXXXXXXXXXXX  XXXXXXXXXXXXXXXXXXXX  XXXXXXXXXXXXXXXXXXXX  XXXXXXXXXXXXXXXXXXXX  XXXXXXXXXXXXXXXXXXXXXX  XXXXXXXXXXXXXXXXXXXX  XX",
"XXXXXXXXXXXX  XXXXXXXXXXXXXXXXXXXX  XXXXXXXXXXXXXXXXXXXX  XXXXXXXXXXXXXXXXXXXX  XXXXXXXXXXXXXXXXXXXXXX  XXXXXXXXXXXXXXXXXXXX  XX",
"XXXXXXXXXX..  XXXXXXXXXXXXXXXXXX..  XXXXXXXXXXXXXXXXXX..  XXXXXXXXXXXXXXXXXX..  XXXXXXXXXXXXXXXXXXXX..  XXXXXXXXXXXX..XXXX..  XX",
"XXXXXXXXXX..  XXXXXXXXXXXXXXXXXX..  XXXXXXXXXXXXXXXXXX..  XXXXXXXXXXXXXXXXXX..  XXXXXXXXXXXXXXXXXXXX..  XXXXXXXXXXXX..XXXX..  XX",
"..XXXXXX....  XXXX....XXXX..XXXX..  XXXXXX..XXXX....XX..  XXXX..XXXXXXXX..XX..  XXXXXX....XXXXXX..XX..  XXXX....XXXXXXXX....  XX",
"..XXXXXX....  XXXX....XXXX..XXXX..  XXXXXX..XXXX....XX..  XXXX..XXXXXXXX..XX..  XXXXXX....XXXXXX..XX..  XXXX....XXXXXXXX....  XX",
"XXXXXX..XX..  XXXXXXXXXXXXXX..XX..  XXXXXXXXXXXXXXXXXX..  XXXXXXXX....XXXXXX..  XXXXXXXXXXXX..XXXXXX..  XXXXXXXXXXXXXXXXXX..  XX",
"XXXXXX..XX..  XXXXXXXXXXXXXX..XX..  XXXXXXXXXXXXXXXXXX..  XXXXXXXX....XXXXXX..  XXXXXXXXXXXX..XXXXXX..  XXXXXXXXXXXXXXXXXX..  XX",
"............  ....................  ....................  ....................  ......................  ....................  ..",
"............  ....................  ....................  ....................  ......................  ....................  ..",
"                                                                                                                                ",
"                                                                                                                                "
};
