/* XPM */
static char *bigger[] = {
/* columns rows colors chars-per-pixel */
"32 32 40 1 ",
"  c #115A48",
". c #14755D",
"X c #177F66",
"o c #41645B",
"O c #447E6F",
"+ c #1A8A6F",
"@ c #4D8A7B",
"# c #1DB58F",
"$ c #479984",
"% c #509584",
"& c #748882",
"* c #4DAF96",
"= c #77A397",
"- c #4DBFA2",
"; c #7ABEAC",
": c #20C098",
"> c #23CAA1",
", c #26D5AA",
"< c #50C9AB",
"1 c #53D4B4",
"2 c #59D5B6",
"3 c #5CE0BF",
"4 c #879F99",
"5 c #80AEA2",
"6 c #8ABAAE",
"7 c #A7ADAA",
"8 c #AAC7BE",
"9 c #86D4C0",
"0 c #8DD5C3",
"q c #89DFC9",
"w c #90DFCC",
"e c #BAC4C1",
"r c #ADD2C7",
"t c #B3D3CA",
"y c #93EAD5",
"u c #E3DDDD",
"i c #C0E9DE",
"p c #EDE8E8",
"a c #F6F4F4",
"s c white",
/* pixels */
",,:,:+,,>,.,>,,:+,,>,.,,>>:+,>,>",
"..... .... ..... .... ..... ....",
",X,>>,>+,,>>X,,,,>+,,>,X,,,,>+,,",
">.,,,>:+>,,,.,>>>:+>,,,.>,,,:+>>",
". ..... .... ..... .... ..... ..",
",,,X,,,:>+,3yy5yyyyq*>>,,X,,>,>+",
",:,.,:,,:%y3,:.>,:,:%y3:,.,,>>:+",
"... ....5O.... ..... .O=. ..... ",
"+,,>,X,y,:>+,,>>X,:,,>+>y,,X,,>,",
"+>,,:.y>,,:+::,,.,,>>:X,>w>.>>,>",
" ....=..5$. .... .....@6..= ....",
",>+>>y,X1s>:>+,>>,X,>>s<+,y>,X,,",
"::+>y>>.,ay,:+>,,>.,,yp:+>,y>.>:",
".. .=.. .5p.. .... ..p=. ..=. ..",
",>>>y>,:,*s3>>,+>,,:%s<>,>+y,,,X",
">>>:y,>,>Xaw,,>+,>,,4p,>,:Xy:,>.",
"....5.... 5t...@$...e=.... =... ",
"X,,:y>+>>,1s>,3aa*>,s-+,,:,q+,,:",
".>>,y:+>,>>ay,s1<p,yp:+>,,,0+>,,",
" ...O$ ....=8=7..788=. ...$O ...",
",>X,:y>>+,>1sp1>,1sp1,:>+,y,>>+,",
":,.,,33:+:,>ip,,>>ur>>,:+22>,:+,",
".. ...O$ ...O&....=O....OO.... .",
",,,,X,>33>+,,,,X,,,,:+,33>+,,,,X",
">>>,.,,,29*,>>>.,>>>:%y2>:+>:>>.",
".... .....o=;$. ..$;=O.... .... ",
">+,,,,X,,,,>+3yyy63,,,>+,,:>+,,,",
":+>>>>.,:,::+,,:>.,:,>:+>>,:+:,>",
". .... ..... .... ..... .... ...",
",,>+,,,,X,,,,>+,,,,X,,,,,X,,,>>+",
">>#+>>>>.,>,::+>>>>.,>>>>.,:,,#+",
"... .... ..... .... ..... ..... "
};
